<svg width="260" height="224" viewBox="0 0 260 224" fill="none" xmlns="http://www.w3.org/2000/svg">
<path d="M133.141 129.844C134.214 129.958 135.286 130.115 136.344 130.323C137.406 130.531 138.458 130.792 139.495 131.094C140.531 131.401 141.552 131.75 142.557 132.151C143.563 132.547 144.552 132.995 145.516 133.479C146.479 133.969 147.417 134.505 148.333 135.078C149.25 135.656 150.141 136.271 150.995 136.927C151.854 137.583 152.682 138.281 153.479 139.01C154.276 139.745 155.036 140.516 155.76 141.318C156.484 142.12 157.172 142.953 157.818 143.818C158.469 144.682 159.073 145.578 159.641 146.5C160.208 147.422 160.729 148.37 161.208 149.339C161.688 150.307 162.12 151.297 162.51 152.307C162.896 153.318 163.24 154.339 163.531 155.38C163.828 156.422 164.073 157.474 164.271 158.536C164.469 159.599 164.615 160.672 164.714 161.75C164.813 162.823 164.865 163.906 164.865 164.984C164.865 183.146 153.797 198.172 138.911 208.089C123.953 218.073 103.938 223.865 82.4323 223.865C60.9271 223.865 40.9115 218.073 25.9531 208.089C11.0469 198.193 0 183.146 0 164.984C0 163.828 0.057292 162.677 0.166667 161.521C0.281249 160.37 0.453125 159.229 0.677083 158.094C0.901042 156.958 1.18229 155.839 1.52083 154.729C1.85417 153.625 2.24479 152.536 2.6875 151.469C3.13021 150.396 3.625 149.354 4.17188 148.333C4.71354 147.313 5.30729 146.323 5.95313 145.359C6.59375 144.396 7.28646 143.469 8.01563 142.573C8.75 141.677 9.52604 140.823 10.3438 140.005C11.1667 139.188 12.0208 138.411 12.9167 137.677C13.8073 136.943 14.7396 136.255 15.6979 135.609C16.6615 134.969 17.651 134.375 18.6719 133.828C19.6927 133.281 20.7396 132.792 21.8073 132.349C22.875 131.906 23.9635 131.516 25.0729 131.177C26.1771 130.844 27.3021 130.563 28.4375 130.339C29.5677 130.109 30.7135 129.943 31.8646 129.828C33.0156 129.714 34.1719 129.656 35.3281 129.656H129.536L133.141 129.844ZM223.698 129.656C224.854 129.656 226.01 129.714 227.161 129.828C228.313 129.943 229.458 130.109 230.589 130.339C231.724 130.563 232.849 130.844 233.953 131.177C235.063 131.516 236.151 131.906 237.219 132.349C238.286 132.792 239.333 133.281 240.354 133.828C241.375 134.375 242.365 134.969 243.328 135.609C244.286 136.255 245.219 136.943 246.109 137.677C247.005 138.411 247.859 139.188 248.677 140.005C249.5 140.823 250.276 141.677 251.005 142.573C251.74 143.469 252.432 144.396 253.073 145.359C253.714 146.323 254.313 147.313 254.854 148.333C255.401 149.354 255.896 150.396 256.339 151.469C256.781 152.536 257.172 153.625 257.505 154.729C257.844 155.839 258.125 156.958 258.349 158.094C258.573 159.229 258.745 160.37 258.859 161.521C258.969 162.677 259.026 163.828 259.026 164.984C259.026 181.354 248.875 193.51 235.875 200.974C222.969 208.391 206.083 212.089 188.37 212.089C182.417 212.073 176.609 211.641 170.943 210.797C176.453 204.297 181.068 196.828 184.156 188.422C185.552 188.5 186.958 188.536 188.37 188.536C203.182 188.536 215.74 185.406 224.146 180.578C232.458 175.797 235.474 170.286 235.474 164.984C235.474 164.214 235.401 163.448 235.25 162.688C235.099 161.932 234.875 161.193 234.578 160.479C234.281 159.766 233.922 159.089 233.49 158.443C233.063 157.802 232.573 157.208 232.026 156.661C231.479 156.115 230.885 155.625 230.24 155.193C229.599 154.766 228.922 154.401 228.203 154.104C227.49 153.813 226.755 153.589 225.995 153.438C225.24 153.286 224.474 153.208 223.698 153.208H187.193C185.396 144.557 181.833 136.708 176.5 129.656H223.698ZM35.3281 153.208C34.5521 153.208 33.7865 153.286 33.0313 153.438C32.2708 153.589 31.5365 153.813 30.8229 154.104C30.1042 154.401 29.4271 154.766 28.7865 155.193C28.1406 155.625 27.5469 156.115 27 156.661C26.4531 157.208 25.9635 157.802 25.5365 158.443C25.1042 159.089 24.7448 159.766 24.4479 160.479C24.151 161.193 23.9271 161.932 23.776 162.688C23.625 163.448 23.5521 164.214 23.5521 164.984C23.5521 172.828 28.3333 181.38 39 188.49C49.599 195.557 64.9115 200.313 82.4323 200.313C99.9323 200.313 115.266 195.557 125.865 188.49C136.531 181.38 141.313 172.828 141.313 164.984C141.313 164.313 141.255 163.646 141.141 162.979C141.026 162.318 140.854 161.667 140.63 161.031C140.406 160.396 140.125 159.786 139.797 159.198C139.464 158.615 139.083 158.057 138.661 157.536C138.234 157.016 137.766 156.531 137.255 156.094C136.75 155.651 136.203 155.255 135.63 154.906C135.052 154.557 134.448 154.26 133.823 154.016C133.198 153.771 132.552 153.578 131.891 153.448L129.536 153.208H35.3281ZM87.8698 0.333333C89.4896 0.5 91.0938 0.739583 92.6875 1.05208C94.2813 1.36458 95.8542 1.75 97.4115 2.20833C98.974 2.66667 100.505 3.19271 102.016 3.79167C103.526 4.39063 105.005 5.05729 106.453 5.79167C107.901 6.52604 109.313 7.32292 110.688 8.1875C112.063 9.05208 113.396 9.97917 114.688 10.9635C115.974 11.9479 117.219 12.9948 118.411 14.0938C119.604 15.1927 120.745 16.349 121.833 17.5521C122.922 18.7552 123.953 20.0104 124.927 21.3125C125.901 22.6094 126.813 23.9531 127.667 25.3333C128.516 26.7188 129.302 28.1406 130.021 29.5938C130.74 31.0521 131.391 32.5365 131.974 34.0521C132.557 35.5677 133.073 37.1042 133.516 38.6667C133.953 40.2292 134.323 41.8125 134.625 43.4063C134.922 45.0052 135.141 46.6094 135.292 48.2292C135.443 49.8438 135.516 51.4635 135.521 53.0885L135.234 58.5052C135.068 60.1198 134.828 61.724 134.516 63.3177C134.198 64.9063 133.813 66.4844 133.354 68.0417C132.896 69.599 132.365 71.1302 131.766 72.6406C131.167 74.1458 130.5 75.625 129.766 77.0729C129.031 78.5208 128.229 79.9271 127.365 81.3021C126.5 82.6771 125.578 84.0052 124.589 85.2969C123.604 86.5833 122.557 87.8281 121.458 89.0208C120.359 90.2135 119.208 91.3542 118 92.4375C116.797 93.526 115.542 94.5573 114.245 95.5313C112.943 96.5 111.604 97.4115 110.219 98.2604C108.839 99.1094 107.417 99.8958 105.964 100.615C104.505 101.333 103.021 101.984 101.505 102.568C99.9948 103.151 98.4531 103.661 96.8906 104.104C95.3281 104.547 93.75 104.917 92.1563 105.214C90.5625 105.505 88.9531 105.729 87.3386 105.88C85.724 106.031 84.1042 106.104 82.4792 106.104L77.0625 105.823C75.5573 105.672 74.0677 105.453 72.5833 105.172C71.099 104.891 69.6302 104.547 68.1719 104.141C66.7188 103.734 65.2813 103.266 63.8698 102.734C62.4531 102.208 61.0625 101.615 59.6979 100.969C58.3333 100.323 57 99.6146 55.6979 98.8542C54.3906 98.0885 53.125 97.276 51.8906 96.401C50.6563 95.5313 49.4583 94.6094 48.3021 93.6354C47.151 92.6615 46.0365 91.6458 44.9688 90.5729C43.901 89.5052 42.8802 88.3958 41.9063 87.2396C40.9323 86.0833 40.0104 84.8906 39.1406 83.6563C38.2708 82.4219 37.4531 81.151 36.6927 79.849C35.9271 78.5417 35.224 77.2083 34.5781 75.8438C33.9271 74.4792 33.3385 73.0885 32.8073 71.6771C32.2813 70.2604 31.8125 68.8281 31.4063 67.3698C31 65.9167 30.6563 64.4479 30.375 62.9635C30.0938 61.4792 29.875 59.9844 29.724 58.4844L29.4375 53.0677C29.4375 51.3281 29.526 49.5938 29.6927 47.8646C29.8646 46.1354 30.1198 44.4219 30.4583 42.7188C30.7969 41.0104 31.2188 39.3281 31.724 37.6667C32.2292 36.0052 32.8125 34.3698 33.474 32.7656C34.1406 31.1615 34.8802 29.5885 35.7031 28.0573C36.5208 26.526 37.4115 25.0365 38.375 23.5938C39.3438 22.1458 40.375 20.7552 41.4792 19.4115C42.5781 18.0677 43.7448 16.7813 44.974 15.5521C46.2031 14.3229 47.4844 13.1563 48.8281 12.0573C50.1719 10.9531 51.5677 9.91667 53.0104 8.95313C54.4531 7.98958 55.9427 7.09375 57.474 6.27604C59.0052 5.45833 60.5729 4.71354 62.1771 4.04688C63.7865 3.38021 65.4167 2.79688 67.0781 2.29167C68.7448 1.78646 70.4271 1.36458 72.1302 1.02604C73.8333 0.6875 75.5521 0.432291 77.2813 0.260417C79.0104 0.088542 80.7396 0.00520933 82.4792 0L87.8698 0.333333ZM194.307 23.6042C195.656 23.6042 197 23.6667 198.344 23.8021C199.688 23.9323 201.021 24.1302 202.344 24.3958C203.672 24.6563 204.979 24.9844 206.271 25.375C207.563 25.7656 208.833 26.224 210.078 26.7396C211.323 27.2552 212.542 27.8333 213.734 28.4688C214.927 29.1042 216.083 29.7969 217.203 30.5469C218.328 31.2969 219.411 32.099 220.453 32.9583C221.495 33.8125 222.495 34.7188 223.448 35.6719C224.406 36.6302 225.307 37.625 226.167 38.6719C227.021 39.7135 227.828 40.7969 228.573 41.9219C229.323 43.0417 230.021 44.1979 230.656 45.3906C231.292 46.5781 231.87 47.7969 232.385 49.0469C232.901 50.2917 233.354 51.5625 233.745 52.8542C234.141 54.1458 234.469 55.4531 234.729 56.776C234.995 58.099 235.193 59.4323 235.323 60.776C235.453 62.1198 235.521 63.4688 235.521 64.8177C235.521 66.1667 235.453 67.5156 235.323 68.8594C235.193 70.2031 234.995 71.5365 234.729 72.8594C234.469 74.1823 234.141 75.4896 233.745 76.7813C233.354 78.0729 232.901 79.3438 232.385 80.5885C231.87 81.8385 231.292 83.0573 230.656 84.25C230.021 85.4375 229.323 86.5938 228.573 87.7188C227.828 88.8385 227.021 89.9219 226.167 90.9635C225.307 92.0104 224.406 93.0104 223.448 93.9635C222.495 94.9167 221.495 95.8229 220.453 96.6771C219.411 97.5365 218.328 98.3385 217.203 99.0885C216.083 99.8385 214.927 100.531 213.734 101.167C212.542 101.802 211.323 102.38 210.078 102.896C208.833 103.411 207.563 103.87 206.271 104.26C204.979 104.651 203.672 104.979 202.344 105.245C201.021 105.505 199.688 105.703 198.344 105.839C197 105.969 195.656 106.036 194.307 106.036C192.953 106.036 191.609 105.969 190.266 105.839C188.922 105.703 187.589 105.505 186.266 105.245C184.943 104.979 183.63 104.651 182.339 104.26C181.047 103.87 179.781 103.411 178.531 102.896C177.286 102.38 176.068 101.802 174.875 101.167C173.688 100.531 172.531 99.8385 171.406 99.0885C170.286 98.3385 169.203 97.5365 168.156 96.6771C167.115 95.8229 166.115 94.9167 165.161 93.9635C164.208 93.0104 163.302 92.0104 162.443 90.9635C161.589 89.9219 160.786 88.8385 160.036 87.7188C159.286 86.5938 158.594 85.4375 157.953 84.25C157.318 83.0573 156.745 81.8385 156.224 80.5885C155.708 79.3438 155.255 78.0729 154.865 76.7813C154.474 75.4896 154.146 74.1823 153.88 72.8594C153.62 71.5365 153.422 70.2031 153.286 68.8594C153.156 67.5156 153.089 66.1667 153.089 64.8177C153.089 63.4688 153.156 62.1198 153.286 60.776C153.422 59.4323 153.62 58.099 153.88 56.776C154.146 55.4531 154.474 54.1458 154.865 52.8542C155.255 51.5625 155.708 50.2917 156.224 49.0469C156.745 47.7969 157.318 46.5781 157.953 45.3906C158.594 44.1979 159.286 43.0417 160.036 41.9219C160.786 40.7969 161.589 39.7135 162.443 38.6719C163.302 37.625 164.208 36.6302 165.161 35.6719C166.115 34.7188 167.115 33.8125 168.156 32.9583C169.203 32.099 170.286 31.2969 171.406 30.5469C172.531 29.7969 173.688 29.1042 174.875 28.4688C176.068 27.8333 177.286 27.2552 178.531 26.7396C179.781 26.224 181.047 25.7656 182.339 25.375C183.63 24.9844 184.943 24.6563 186.266 24.3958C187.589 24.1302 188.922 23.9323 190.266 23.8021C191.609 23.6667 192.953 23.6042 194.307 23.6042ZM82.4792 23.6042C81.5104 23.599 80.5469 23.6458 79.5886 23.7448C78.625 23.8385 77.6719 23.9792 76.724 24.1667C75.7761 24.3542 74.8386 24.5885 73.9167 24.8698C72.9896 25.1458 72.0833 25.474 71.1927 25.8438C70.2969 26.2135 69.4271 26.625 68.5729 27.0781C67.7188 27.5365 66.8906 28.0313 66.0885 28.5677C65.2865 29.1042 64.5104 29.6771 63.7656 30.2917C63.0156 30.901 62.3021 31.5521 61.6198 32.2344C60.9375 32.9167 60.2865 33.6302 59.6719 34.375C59.0625 35.125 58.4844 35.901 57.9479 36.7031C57.4115 37.5052 56.9167 38.3333 56.4635 39.1823C56.0052 40.0365 55.5938 40.9115 55.224 41.8021C54.8542 42.6927 54.526 43.6042 54.25 44.526C53.9688 45.4531 53.7344 46.3854 53.5417 47.3333C53.3542 48.2813 53.2135 49.2344 53.1198 50.1979C53.026 51.1615 52.9792 52.125 52.9792 53.0885C52.9792 54.0573 53.026 55.0208 53.1198 55.9792C53.2135 56.9427 53.3542 57.8958 53.5417 58.8438C53.7344 59.7917 53.9688 60.7292 54.25 61.651C54.526 62.5781 54.8542 63.4844 55.224 64.375C55.5938 65.2708 56.0052 66.1406 56.4635 66.9948C56.9167 67.8438 57.4115 68.6719 57.9479 69.474C58.4844 70.2813 59.0625 71.0521 59.6719 71.8021C60.2865 72.5469 60.9375 73.2604 61.6198 73.9427C62.3021 74.6302 63.0156 75.276 63.7656 75.8906C64.5104 76.5 65.2865 77.0781 66.0885 77.6146C66.8906 78.151 67.7188 78.6458 68.5729 79.099C69.4271 79.5521 70.2969 79.9688 71.1927 80.3385C72.0833 80.7031 72.9896 81.0313 73.9167 81.3125C74.8386 81.5885 75.7761 81.8229 76.724 82.0104C77.6719 82.1979 78.625 82.3438 79.5886 82.4375C80.5469 82.5313 81.5104 82.5781 82.4792 82.5781C83.4427 82.5781 84.4063 82.5313 85.3698 82.4323C86.3281 82.3385 87.2865 82.1979 88.2292 82.0104C89.1771 81.8229 90.1146 81.5885 91.0365 81.3073C91.9636 81.026 92.8698 80.7031 93.7656 80.3333C94.6563 79.9635 95.5261 79.5521 96.3802 79.0938C97.2292 78.6406 98.0573 78.1458 98.8594 77.6094C99.6667 77.0729 100.438 76.4948 101.188 75.8854C101.932 75.2708 102.646 74.625 103.328 73.9375C104.01 73.2552 104.661 72.5417 105.271 71.7969C105.885 71.0469 106.458 70.276 106.995 69.474C107.531 68.6667 108.031 67.8385 108.484 66.9896C108.938 66.1354 109.354 65.2656 109.724 64.375C110.094 63.4792 110.417 62.5729 110.698 61.651C110.979 60.724 111.214 59.7865 111.401 58.8438C111.589 57.8958 111.729 56.9427 111.823 55.9792C111.917 55.0208 111.969 54.0573 111.969 53.0885C111.969 52.125 111.917 51.1615 111.823 50.1979C111.729 49.2396 111.589 48.2813 111.401 47.3385C111.214 46.3906 110.979 45.4531 110.698 44.5313C110.417 43.6042 110.094 42.6979 109.724 41.8073C109.354 40.9115 108.938 40.0417 108.484 39.1875C108.031 38.3385 107.531 37.5104 106.995 36.7083C106.458 35.9063 105.885 35.1302 105.271 34.3802C104.661 33.6354 104.01 32.9219 103.328 32.2396C102.646 31.5573 101.932 30.9063 101.188 30.2969C100.438 29.6823 99.6667 29.1094 98.8594 28.5729C98.0573 28.0365 97.2292 27.5365 96.3802 27.0833C95.5261 26.6302 94.6563 26.2135 93.7656 25.8438C92.8698 25.4792 91.9636 25.151 91.0365 24.8698C90.1146 24.5885 89.1771 24.3542 88.2292 24.1667C87.2865 23.9792 86.3281 23.8385 85.3698 23.7448C84.4063 23.651 83.4427 23.6042 82.4792 23.6042ZM194.307 47.1563C193.146 47.1563 191.995 47.2656 190.859 47.4948C189.724 47.7188 188.615 48.0521 187.547 48.5C186.474 48.9427 185.458 49.4844 184.49 50.1302C183.526 50.776 182.635 51.5052 181.813 52.3281C180.995 53.1458 180.26 54.0417 179.62 55.0052C178.974 55.9688 178.427 56.9844 177.984 58.0573C177.542 59.1302 177.208 60.2344 176.979 61.3698C176.755 62.5104 176.641 63.6563 176.641 64.8177C176.641 65.9792 176.755 67.125 176.979 68.2656C177.208 69.401 177.542 70.5052 177.984 71.5781C178.427 72.651 178.974 73.6667 179.62 74.6302C180.26 75.5938 180.995 76.4896 181.813 77.3073C182.635 78.1302 183.526 78.8594 184.49 79.5052C185.458 80.151 186.474 80.6927 187.547 81.1354C188.615 81.5833 189.724 81.9167 190.859 82.1406C191.995 82.3698 193.146 82.4844 194.307 82.4844C195.464 82.4844 196.615 82.3698 197.75 82.1406C198.891 81.9167 199.995 81.5833 201.063 81.1354C202.135 80.6927 203.156 80.151 204.12 79.5052C205.083 78.8594 205.974 78.1302 206.797 77.3073C207.615 76.4896 208.349 75.5938 208.995 74.6302C209.635 73.6667 210.182 72.651 210.625 71.5781C211.068 70.5052 211.406 69.401 211.63 68.2656C211.854 67.125 211.969 65.9792 211.969 64.8177C211.969 63.6563 211.854 62.5104 211.63 61.3698C211.406 60.2344 211.068 59.1302 210.625 58.0573C210.182 56.9844 209.635 55.9688 208.995 55.0052C208.349 54.0417 207.615 53.1458 206.797 52.3281C205.974 51.5052 205.083 50.776 204.12 50.1302C203.156 49.4844 202.135 48.9427 201.063 48.5C199.995 48.0521 198.891 47.7188 197.75 47.4948C196.615 47.2656 195.464 47.1563 194.307 47.1563Z" fill="#FFBB00"/>
</svg>
