<svg width="167" height="167" viewBox="0 0 167 167" fill="none" xmlns="http://www.w3.org/2000/svg">
<mask id="mask0_2565_1889" style="mask-type:luminance" maskUnits="userSpaceOnUse" x="0" y="0" width="167" height="167">
<path d="M0 0H166.833V166.828H0V0Z" fill="white"/>
</mask>
<g mask="url(#mask0_2565_1889)">
<path fill-rule="evenodd" clip-rule="evenodd" d="M137.131 4.52083C136.87 3.47917 136.365 2.56771 135.615 1.79687C134.865 1.02604 133.969 0.494792 132.933 0.208333C131.896 -0.0781249 130.86 -0.0885416 129.818 0.1875C128.777 0.463541 127.876 0.979166 127.115 1.73958L103.235 25.6198C102.495 26.3646 101.985 27.2396 101.704 28.25C101.428 29.2604 101.412 30.276 101.673 31.2917L105.969 48.5313L77.2507 77.25C76.86 77.6667 76.5111 78.1198 76.209 78.6094C75.9069 79.099 75.6517 79.6094 75.4434 80.1458C75.2402 80.6823 75.084 81.2344 74.985 81.8021C74.8861 82.3646 74.8392 82.9375 74.8496 83.5104C74.86 84.0833 74.9277 84.651 75.0475 85.2135C75.1673 85.776 75.3392 86.3229 75.5632 86.8542C75.7871 87.3802 76.0579 87.8854 76.3809 88.3594C76.7038 88.8385 77.0684 89.276 77.4746 89.6823C77.8809 90.0885 78.3184 90.4531 78.7975 90.776C79.2715 91.099 79.7767 91.3698 80.3027 91.5938C80.834 91.8177 81.3809 91.9896 81.9434 92.1094C82.5059 92.2292 83.0736 92.2969 83.6465 92.3073C84.2194 92.3177 84.7923 92.2708 85.36 92.1719C85.9225 92.0729 86.4746 91.9219 87.0111 91.7135C87.5475 91.5052 88.0579 91.2552 88.5475 90.9479C89.0371 90.6458 89.4902 90.2969 89.9069 89.9063L118.48 61.3698L118.646 61.1875L135.876 65.5C136.896 65.7552 137.907 65.7448 138.917 65.4635C139.928 65.1875 140.808 64.6771 141.548 63.9375L165.428 40.0573C166.193 39.2969 166.714 38.3906 166.99 37.349C167.266 36.3073 167.261 35.2656 166.969 34.2292C166.683 33.1875 166.152 32.2917 165.376 31.5417C164.605 30.7865 163.693 30.2865 162.646 30.026L142.24 24.9375L137.131 4.52083ZM87.3652 9.05729C87.4069 9.64583 87.3913 10.2292 87.3132 10.8125C87.2402 11.3958 87.11 11.9688 86.9225 12.526C86.735 13.0833 86.4954 13.6146 86.2038 14.125C85.9121 14.6354 85.5736 15.1146 85.1882 15.5573C84.8027 16 84.3757 16.401 83.9121 16.7604C83.4486 17.1198 82.9538 17.4323 82.4277 17.6927C81.9017 17.9531 81.3548 18.1615 80.7871 18.3177C80.2194 18.474 79.6413 18.5729 79.0579 18.6094C76.9902 18.7552 74.9329 18.9948 72.8913 19.3333C70.8496 19.6719 68.8236 20.1094 66.8236 20.6406C64.8184 21.1719 62.8496 21.7969 60.9069 22.5156C58.9642 23.2344 57.0579 24.0417 55.1934 24.9427C53.3236 25.8438 51.5059 26.8281 49.735 27.901C47.9642 28.9792 46.2454 30.1302 44.584 31.3698C42.9225 32.6042 41.3236 33.9167 39.7871 35.3073C38.2507 36.6927 36.7819 38.151 35.3809 39.6823C33.985 41.2083 32.6621 42.8021 31.4173 44.4583C30.1673 46.1094 29.0059 47.8177 27.9173 49.5833C26.834 51.349 25.8392 53.1615 24.9277 55.0208C24.0163 56.8854 23.1934 58.7813 22.4642 60.7188C21.7298 62.6615 21.0944 64.625 20.5475 66.625C20.0059 68.625 19.5579 70.6458 19.209 72.6875C18.8548 74.7292 18.6048 76.7813 18.4486 78.849C18.2923 80.9115 18.235 82.9844 18.2715 85.0521C18.3132 87.125 18.4538 89.1875 18.6882 91.2448C18.9277 93.3021 19.2611 95.3438 19.6934 97.3698C20.1257 99.3958 20.6517 101.401 21.2767 103.375C21.8965 105.349 22.61 107.292 23.4173 109.203C24.2246 111.109 25.1204 112.974 26.1048 114.797C27.0892 116.62 28.1569 118.391 29.3079 120.115C30.4642 121.833 31.6934 123.495 33.0059 125.099C34.3184 126.703 35.6986 128.24 37.1569 129.714C38.6152 131.188 40.1413 132.589 41.7298 133.911C43.3184 135.24 44.9694 136.49 46.6777 137.661C48.3913 138.828 50.1517 139.917 51.9642 140.917C53.7767 141.922 55.6309 142.833 57.5319 143.661C59.4329 144.484 61.3652 145.219 63.334 145.865C65.3079 146.505 67.3027 147.052 69.3236 147.505C71.3444 147.953 73.3809 148.313 75.4382 148.568C77.4954 148.828 79.5579 148.984 81.6257 149.047C83.6986 149.109 85.7663 149.073 87.834 148.938C89.9017 148.802 91.959 148.568 94.0007 148.24C96.0475 147.906 98.0736 147.479 100.074 146.958C102.079 146.432 104.053 145.818 106.001 145.104C107.943 144.391 109.855 143.589 111.725 142.698C113.589 141.807 115.412 140.823 117.188 139.76C118.964 138.693 120.688 137.547 122.355 136.313C124.021 135.083 125.626 133.776 127.167 132.396C128.709 131.01 130.183 129.557 131.589 128.036C132.99 126.516 134.318 124.927 135.574 123.276C136.829 121.63 138.001 119.922 139.089 118.161C140.183 116.401 141.188 114.594 142.105 112.734C143.021 110.88 143.855 108.984 144.589 107.047C145.329 105.115 145.975 103.146 146.527 101.151C147.079 99.151 147.532 97.1354 147.891 95.0938C148.251 93.0521 148.511 91 148.678 88.9375C148.725 88.349 148.829 87.776 148.985 87.2083C149.146 86.6406 149.36 86.099 149.631 85.5729C149.896 85.0469 150.214 84.5573 150.579 84.0938C150.943 83.6354 151.35 83.2135 151.798 82.8281C152.24 82.4479 152.725 82.1146 153.235 81.8281C153.751 81.5417 154.287 81.3073 154.844 81.125C155.407 80.9427 155.98 80.8177 156.563 80.75C157.146 80.6823 157.73 80.6719 158.318 80.7188C158.907 80.7604 159.48 80.8646 160.048 81.026C160.615 81.1875 161.157 81.401 161.683 81.6667C162.204 81.9375 162.699 82.25 163.162 82.6146C163.62 82.9792 164.042 83.3854 164.428 83.8333C164.808 84.2813 165.141 84.7604 165.428 85.276C165.714 85.7917 165.949 86.3281 166.131 86.8854C166.313 87.4479 166.438 88.0156 166.506 88.6042C166.574 89.1875 166.584 89.7708 166.537 90.3594C166.329 92.9896 165.995 95.6042 165.537 98.2031C165.079 100.802 164.501 103.375 163.798 105.917C163.094 108.464 162.271 110.969 161.329 113.432C160.391 115.901 159.334 118.313 158.162 120.682C156.99 123.047 155.709 125.349 154.318 127.594C152.928 129.839 151.438 132.01 149.839 134.109C148.24 136.214 146.548 138.234 144.761 140.172C142.969 142.115 141.094 143.964 139.126 145.729C137.162 147.49 135.115 149.151 132.995 150.719C130.87 152.286 128.678 153.75 126.412 155.109C124.152 156.469 121.829 157.714 119.449 158.854C117.063 159.99 114.636 161.01 112.157 161.917C109.678 162.823 107.162 163.609 104.605 164.276C102.053 164.943 99.4746 165.49 96.8652 165.911C94.2611 166.333 91.6413 166.63 89.0059 166.802C86.3757 166.974 83.7402 167.021 81.0996 166.943C78.4642 166.865 75.834 166.656 73.2142 166.328C70.5944 166 68.0007 165.547 65.4225 164.974C62.8444 164.396 60.3027 163.698 57.7923 162.88C55.2871 162.063 52.8184 161.13 50.4017 160.078C47.9798 159.026 45.6152 157.859 43.3027 156.583C40.9954 155.307 38.7507 153.922 36.5736 152.432C34.3965 150.938 32.2923 149.349 30.2663 147.656C28.2402 145.969 26.2975 144.182 24.4382 142.307C22.584 140.432 20.8184 138.474 19.1517 136.427C17.4798 134.385 15.9069 132.266 14.4382 130.073C12.9694 127.88 11.61 125.625 10.3548 123.302C9.09961 120.979 7.95898 118.604 6.93294 116.172C5.90169 113.74 4.99544 111.266 4.20378 108.75C3.4069 106.229 2.73503 103.682 2.18815 101.099C1.63607 98.5156 1.20898 95.9167 0.906901 93.2917C0.604817 90.6719 0.427735 88.0417 0.375651 85.401C0.323568 82.7656 0.396484 80.1302 0.594401 77.4948C0.797525 74.8646 1.12044 72.25 1.56315 69.6458C2.01107 67.0469 2.58398 64.474 3.27669 61.9271C3.9694 59.3802 4.7819 56.8698 5.70898 54.401C6.64128 51.9323 7.68815 49.5104 8.84961 47.1406C10.0111 44.7708 11.2819 42.4583 12.6621 40.2083C14.0423 37.9635 15.5319 35.7813 17.1152 33.6771C18.7038 31.5677 20.3913 29.5417 22.1725 27.5938C23.9538 25.6458 25.8236 23.7865 27.7819 22.0156C29.7402 20.2448 31.7767 18.5729 33.8965 17C36.0111 15.4219 38.1986 13.9479 40.459 12.5833C42.7142 11.2135 45.0319 9.95833 47.4069 8.8125C49.7871 7.66146 52.2142 6.63021 54.6882 5.71354C57.1621 4.79687 59.6777 4 62.2246 3.32292C64.7767 2.64583 67.3548 2.09375 69.959 1.66146C72.5632 1.22917 75.1829 0.921874 77.8132 0.739584C78.4017 0.697917 78.985 0.713541 79.5684 0.786458C80.1517 0.864584 80.7194 0.994792 81.2767 1.18229C81.834 1.36979 82.3704 1.60938 82.8809 1.90104C83.3913 2.19271 83.8652 2.53125 84.3132 2.91667C84.7559 3.30208 85.1569 3.72396 85.5163 4.19271C85.8757 4.65625 86.1882 5.15104 86.4486 5.67708C86.709 6.20313 86.9173 6.75 87.0736 7.31771C87.2298 7.88542 87.3236 8.46354 87.3652 9.04687M79.3444 48.4375C79.5579 48.9844 79.7142 49.5469 79.8184 50.125C79.9225 50.7083 79.9694 51.2917 79.959 51.875C79.9486 52.4635 79.8757 53.0469 79.7507 53.6198C79.6257 54.1979 79.4434 54.75 79.209 55.2917C78.9746 55.8281 78.6882 56.3385 78.3496 56.8229C78.0163 57.3073 77.6361 57.75 77.2142 58.1563C76.7871 58.5677 76.3288 58.9271 75.834 59.2448C75.3392 59.5625 74.8184 59.8281 74.2663 60.0417C73.2923 60.4271 72.3444 60.8646 71.4225 61.3646C70.5059 61.8646 69.6204 62.4219 68.7663 63.0313C67.9173 63.6406 67.1048 64.3021 66.334 65.0156C65.5684 65.724 64.8444 66.4792 64.1673 67.2813C63.4902 68.0833 62.8704 68.9219 62.2975 69.7969C61.7246 70.6771 61.209 71.5833 60.7507 72.526C60.2923 73.4688 59.8965 74.4375 59.5579 75.4271C59.2194 76.4167 58.9434 77.4271 58.7298 78.4531C58.5163 79.4792 58.3652 80.5104 58.2819 81.5573C58.1986 82.599 58.1777 83.6458 58.2246 84.6927C58.2663 85.7396 58.3757 86.7813 58.5527 87.8125C58.7246 88.8438 58.9642 89.8646 59.2611 90.8646C59.5632 91.8698 59.9225 92.849 60.3444 93.8073C60.7663 94.7708 61.2507 95.6979 61.7871 96.599C62.3236 97.4948 62.9173 98.3594 63.5579 99.1823C64.2038 100.01 64.8965 100.792 65.6413 101.531C66.3809 102.271 67.1673 102.964 67.9954 103.604C68.8184 104.245 69.6829 104.833 70.584 105.37C71.485 105.906 72.4173 106.38 73.3757 106.802C74.334 107.219 75.3184 107.578 76.3236 107.875C77.3288 108.172 78.3444 108.406 79.3809 108.578C80.4121 108.75 81.4538 108.859 82.5007 108.901C83.5475 108.943 84.5892 108.917 85.6361 108.828C86.6777 108.74 87.7142 108.589 88.7402 108.375C89.7611 108.156 90.7715 107.88 91.7611 107.536C92.7507 107.198 93.7142 106.797 94.6569 106.333C95.5996 105.87 96.5059 105.354 97.3809 104.781C98.2559 104.208 99.0944 103.578 99.8965 102.901C100.693 102.224 101.449 101.5 102.157 100.729C102.865 99.9583 103.521 99.1458 104.131 98.2917C104.735 97.4375 105.287 96.5521 105.787 95.6302C106.282 94.7083 106.725 93.7552 107.105 92.7813C107.313 92.2344 107.579 91.7083 107.896 91.2135C108.214 90.7188 108.574 90.2604 108.98 89.8333C109.386 89.4063 109.829 89.026 110.313 88.6875C110.792 88.3542 111.303 88.0625 111.844 87.8281C112.381 87.5885 112.938 87.4115 113.511 87.2813C114.084 87.1563 114.667 87.0833 115.256 87.0729C115.844 87.0573 116.428 87.1042 117.006 87.2083C117.584 87.3073 118.152 87.4635 118.699 87.6771C119.245 87.8906 119.766 88.1563 120.266 88.474C120.761 88.7917 121.219 89.151 121.646 89.5573C122.068 89.9635 122.449 90.4115 122.787 90.8906C123.126 91.375 123.412 91.8854 123.646 92.4219C123.886 92.9583 124.068 93.5156 124.193 94.0938C124.324 94.6667 124.391 95.2448 124.402 95.8333C124.417 96.4219 124.37 97.0052 124.266 97.5833C124.167 98.1667 124.006 98.7292 123.792 99.276C123.469 100.109 123.12 100.932 122.745 101.745C122.37 102.552 121.969 103.354 121.548 104.141C121.12 104.927 120.673 105.698 120.204 106.458C119.73 107.214 119.235 107.958 118.714 108.688C118.199 109.411 117.657 110.125 117.094 110.818C116.532 111.51 115.949 112.188 115.344 112.849C114.74 113.505 114.115 114.146 113.469 114.76C112.829 115.38 112.162 115.979 111.485 116.557C110.803 117.135 110.105 117.693 109.386 118.229C108.673 118.766 107.938 119.276 107.193 119.766C106.443 120.255 105.683 120.719 104.907 121.161C104.131 121.604 103.339 122.026 102.537 122.417C101.735 122.813 100.923 123.177 100.094 123.521C99.2715 123.865 98.4382 124.182 97.5944 124.474C96.7454 124.766 95.8965 125.026 95.0319 125.266C94.1725 125.505 93.3027 125.714 92.4277 125.901C91.5527 126.083 90.6777 126.24 89.7923 126.37C88.9069 126.5 88.0215 126.604 87.1309 126.677C86.2402 126.755 85.3496 126.802 84.4538 126.818C83.5632 126.839 82.6673 126.828 81.7767 126.797C80.8809 126.76 79.9902 126.693 79.1048 126.604C78.2142 126.51 77.3288 126.396 76.4486 126.25C75.5632 126.104 74.6882 125.927 73.8184 125.729C72.9486 125.526 72.084 125.302 71.2298 125.047C70.3704 124.792 69.5215 124.51 68.6829 124.208C67.8444 123.901 67.0163 123.568 66.1986 123.208C65.3757 122.849 64.5684 122.469 63.7767 122.063C62.9798 121.651 62.1986 121.219 61.4329 120.766C60.6621 120.307 59.9121 119.828 59.1725 119.323C58.4329 118.818 57.709 118.297 57.0059 117.745C56.2975 117.198 55.61 116.63 54.9382 116.036C54.2715 115.448 53.6204 114.839 52.985 114.208C52.3548 113.573 51.7402 112.927 51.1465 112.255C50.5579 111.589 49.985 110.901 49.4382 110.193C48.8861 109.49 48.36 108.771 47.8548 108.031C47.3496 107.297 46.8652 106.542 46.4069 105.776C45.9486 105.01 45.5163 104.229 45.1048 103.432C44.6986 102.641 44.3132 101.833 43.9538 101.016C43.5944 100.198 43.2559 99.3698 42.9486 98.5313C42.6413 97.6927 42.36 96.8438 42.1048 95.9896C41.8444 95.1354 41.6152 94.2708 41.4173 93.401C41.2142 92.5313 41.0371 91.6563 40.8913 90.7708C40.7402 89.8906 40.6204 89.0052 40.5267 88.1198C40.4329 87.2292 40.3704 86.3385 40.3288 85.4479C40.2923 84.5521 40.2819 83.6615 40.2975 82.7656C40.3184 81.875 40.36 80.9792 40.4329 80.0885C40.5059 79.1979 40.6048 78.3125 40.735 77.4271C40.86 76.5417 41.0163 75.6667 41.1986 74.7917C41.3809 73.9167 41.5892 73.0469 41.8288 72.1875C42.0632 71.3229 42.3236 70.4688 42.6152 69.625C42.9069 68.776 43.2194 67.9427 43.5579 67.1146C43.9017 66.2917 44.2663 65.474 44.6569 64.6719C45.0527 63.8698 45.4642 63.0781 45.9069 62.3021C46.3496 61.526 46.8132 60.7604 47.2975 60.0104C47.7871 59.2656 48.2975 58.5313 48.8288 57.8125C49.3652 57.099 49.9173 56.3958 50.4954 55.7135C51.0736 55.0313 51.6673 54.3698 52.2871 53.724C52.9069 53.0781 53.5423 52.4531 54.1986 51.8438C54.8548 51.2396 55.5319 50.6563 56.2246 50.0885C56.9173 49.526 57.6257 48.9844 58.3548 48.4635C59.0788 47.9427 59.8236 47.4479 60.5788 46.974C61.334 46.5 62.1048 46.0469 62.8913 45.6198C63.6777 45.1927 64.4746 44.7917 65.2871 44.4167C66.0944 44.0417 66.9173 43.6875 67.7507 43.3646C68.2975 43.151 68.86 42.9896 69.4382 42.8906C70.0163 42.7865 70.5996 42.7396 71.1882 42.75C71.7715 42.7656 72.3548 42.8333 72.9277 42.9583C73.5007 43.0833 74.0579 43.2656 74.5944 43.5C75.1361 43.7344 75.6465 44.0208 76.1257 44.3594C76.61 44.6927 77.0527 45.0729 77.459 45.5C77.8652 45.9219 78.2298 46.3802 78.5475 46.875C78.8652 47.3698 79.1309 47.8906 79.3444 48.4375Z" fill="url(#paint0_linear_2565_1889)" fill-opacity="0.2"/>
</g>
<defs>
<linearGradient id="paint0_linear_2565_1889" x1="83.7761" y1="-0.0131836" x2="83.7761" y2="166.979" gradientUnits="userSpaceOnUse">
<stop stop-color="#00A2ED"/>
<stop offset="1" stop-color="white"/>
</linearGradient>
</defs>
</svg>
