<svg width="24" height="24" viewBox="0 0 24 24" fill="none" xmlns="http://www.w3.org/2000/svg">
<path d="M22.3672 5.95396V6.28465L11.9999 13.1336L1.60864 5.78918C1.6795 4.51385 2.74227 3.52197 4.04103 3.52197H19.9345C21.2807 3.52197 22.3671 4.60816 22.3671 5.95436L22.3672 5.95396Z" fill="#081219"/>
<path d="M12.472 14.9282L22.3673 8.38683V18.0459C22.3673 19.3921 21.2809 20.4783 19.9349 20.4783H4.0649C2.71869 20.4783 1.63251 19.3919 1.63251 18.0459L1.63232 7.93823L11.5037 14.9287C11.6455 15.0468 11.8344 15.094 11.9996 15.094C12.1649 15.0702 12.3303 15.023 12.472 14.9287L12.472 14.9282Z" fill="#081219"/>
</svg>
