<svg width="115" height="157" viewBox="0 0 115 157" fill="none" xmlns="http://www.w3.org/2000/svg">
<path fill-rule="evenodd" clip-rule="evenodd" d="M39.2815 152.62C42.1148 153.99 45.068 155.026 48.1357 155.729C51.2034 156.432 54.3128 156.781 57.4586 156.781C60.6044 156.781 63.7138 156.432 66.7815 155.729C69.8492 155.026 72.8023 153.99 75.6357 152.62L76.9951 151.964C78.7659 151.109 80.3805 150.026 81.844 148.719C83.3076 147.406 84.5576 145.922 85.6044 144.26C86.6461 142.594 87.443 140.823 87.9846 138.932C88.5263 137.047 88.8024 135.12 88.8024 133.156V128.271C88.8024 114.146 96.9065 101.557 104.891 89.8958C105.87 88.4635 106.782 86.9948 107.625 85.4792C108.469 83.9688 109.245 82.4167 109.948 80.8333C110.657 79.25 111.287 77.6406 111.849 76C112.407 74.3594 112.891 72.6927 113.297 71.0104C113.709 69.3229 114.042 67.625 114.292 65.9115C114.547 64.1979 114.724 62.474 114.823 60.7448C114.922 59.0104 114.943 57.2812 114.886 55.5469C114.828 53.8177 114.693 52.0885 114.479 50.3698C114.266 48.651 113.974 46.9427 113.604 45.25C113.24 43.5573 112.792 41.8802 112.271 40.2292C111.755 38.5729 111.162 36.9479 110.495 35.349C109.823 33.7448 109.089 32.1823 108.276 30.6458C107.469 29.1146 106.594 27.6198 105.651 26.1667C104.703 24.7135 103.698 23.3073 102.625 21.9427C101.552 20.5781 100.422 19.2708 99.2346 18.0104C98.0419 16.75 96.7971 15.5469 95.5003 14.3958C94.1982 13.25 92.8492 12.1615 91.4534 11.1354C90.0576 10.1094 88.6149 9.15104 87.1305 8.25521C85.6461 7.35938 84.1253 6.53646 82.568 5.77604C81.0055 5.02083 79.4169 4.33333 77.7971 3.71875C76.1721 3.10937 74.5263 2.56771 72.8596 2.10417C71.1878 1.64063 69.5003 1.25 67.7971 0.9375C66.0888 0.625 64.3753 0.390625 62.6461 0.234374C60.9221 0.078125 59.193 0 57.4586 0C55.7242 0 53.9951 0.078125 52.2711 0.234374C50.5419 0.390625 48.8284 0.625 47.1201 0.9375C45.4169 1.25 43.7294 1.64063 42.0576 2.10417C40.3909 2.56771 38.7451 3.10937 37.1201 3.71875C35.5003 4.33333 33.9117 5.02083 32.3492 5.77604C30.7919 6.53646 29.2711 7.35938 27.7867 8.25521C26.3023 9.15104 24.8596 10.1094 23.4638 11.1354C22.068 12.1615 20.719 13.25 19.4169 14.3958C18.1201 15.5469 16.8753 16.75 15.6826 18.0104C14.4951 19.2708 13.3648 20.5781 12.2919 21.9427C11.219 23.3073 10.2138 24.7135 9.26589 26.1667C8.32318 27.6198 7.44818 29.1146 6.64089 30.6458C5.82839 32.1823 5.09401 33.75 4.42214 35.349C3.75547 36.9479 3.16172 38.5729 2.64609 40.2292C2.12526 41.8802 1.68255 43.5573 1.31276 45.25C0.942968 46.9427 0.651302 48.651 0.43776 50.3698C0.224218 52.0885 0.0888023 53.8177 0.0315103 55.5469C-0.0257817 57.2812 -0.00494703 59.0104 0.0940103 60.7448C0.192969 62.474 0.370052 64.1979 0.62526 65.9115C0.880468 67.625 1.20859 69.3229 1.62005 71.0104C2.0263 72.6927 2.51068 74.3594 3.07318 76C3.63047 77.6406 4.26068 79.25 4.96901 80.8333C5.67214 82.4167 6.44818 83.9688 7.29193 85.4792C8.13568 86.9948 9.04714 88.4635 10.0263 89.8958C18.0107 101.557 26.1148 114.146 26.1148 128.281V133.156C26.1148 135.125 26.3909 137.047 26.9326 138.938C27.4742 140.823 28.2659 142.599 29.3128 144.266C30.3544 145.927 31.6096 147.417 33.0732 148.724C34.5367 150.036 36.1513 151.12 37.9221 151.974L39.2815 152.62ZM68.8232 138.516L70.1826 137.849C71.0836 137.411 71.8023 136.771 72.3336 135.922C72.8648 135.073 73.1305 134.151 73.1305 133.146V128.271C73.1305 126.495 73.219 124.75 73.3909 123.047C68.193 124.599 62.8805 125.375 57.4586 125.375C52.0367 125.375 46.7242 124.599 41.5263 123.047C41.693 124.75 41.7815 126.495 41.7867 128.271V133.146C41.7867 134.151 42.0523 135.073 42.5836 135.922C43.1148 136.771 43.8336 137.411 44.7346 137.849L46.094 138.505C47.8648 139.365 49.7086 140.01 51.6305 140.453C53.5471 140.891 55.4898 141.109 57.4586 141.109C59.4273 141.109 61.3701 140.891 63.2867 140.453C65.2086 140.01 67.0523 139.365 68.8232 138.505M22.9638 81.0365C27.0784 87.0521 32.2711 94.6406 36.1565 103.479C37.7398 104.49 39.3857 105.38 41.094 106.156C42.8076 106.932 44.5628 107.583 46.3648 108.109C48.1669 108.635 49.9951 109.031 51.8544 109.297C53.7138 109.562 55.5836 109.698 57.4586 109.698C59.3388 109.698 61.2034 109.562 63.0628 109.297C64.9221 109.031 66.7503 108.635 68.5523 108.109C70.3544 107.583 72.1148 106.932 73.8232 106.156C75.5315 105.38 77.1773 104.49 78.7607 103.479C82.6461 94.6406 87.8388 87.0521 91.9638 81.0365C92.6774 79.9948 93.3388 78.9271 93.9534 77.8229C94.568 76.724 95.1305 75.599 95.6461 74.4479C96.1565 73.2969 96.6149 72.1198 97.0211 70.9271C97.4274 69.7344 97.7815 68.526 98.0784 67.3021C98.3753 66.0781 98.6149 64.8385 98.8024 63.5938C98.9846 62.349 99.1149 61.0938 99.1878 59.8333C99.2555 58.5781 99.2711 57.3177 99.2294 56.0573C99.1878 54.7969 99.0888 53.5417 98.9326 52.2917C98.7763 51.0417 98.5628 49.8021 98.2971 48.5677C98.0263 47.3385 97.7034 46.1198 97.3284 44.9167C96.9482 43.7135 96.5159 42.5312 96.0315 41.3698C95.5471 40.2083 95.0107 39.0677 94.4221 37.9531C93.8336 36.8385 93.193 35.75 92.5107 34.6927C91.8232 33.6354 91.0888 32.6146 90.3076 31.625C89.5315 30.6302 88.7086 29.6771 87.844 28.7604C86.9742 27.8438 86.0732 26.9688 85.1253 26.1354C84.1826 25.3021 83.2034 24.5104 82.1826 23.7656C81.1669 23.0208 80.1201 22.3229 79.0419 21.6719C77.9638 21.0208 76.8544 20.4219 75.719 19.8698C74.5888 19.3177 73.4325 18.8177 72.2503 18.375C71.0732 17.9271 69.8753 17.5365 68.6617 17.1979C67.4482 16.8594 66.219 16.5781 64.9794 16.349C63.7398 16.125 62.4951 15.9531 61.2398 15.8385C59.9846 15.724 58.7242 15.6719 57.4638 15.6719C56.2034 15.6719 54.9482 15.724 53.6878 15.8385C52.4326 15.9531 51.1878 16.125 49.9482 16.349C48.7086 16.5781 47.4794 16.8594 46.2659 17.1979C45.0523 17.5365 43.8544 17.9271 42.6773 18.375C41.4951 18.8177 40.3388 19.3177 39.2086 19.8698C38.0732 20.4219 36.9638 21.0208 35.8857 21.6719C34.8076 22.3229 33.7607 23.0208 32.7451 23.7656C31.7242 24.5104 30.7451 25.3021 29.8023 26.1354C28.8544 26.9688 27.9534 27.8438 27.0836 28.7604C26.219 29.6771 25.3961 30.6302 24.6201 31.625C23.8388 32.6146 23.1044 33.6354 22.4169 34.6927C21.7346 35.75 21.094 36.8385 20.5055 37.9531C19.9169 39.0677 19.3805 40.2083 18.8961 41.3698C18.4117 42.5312 17.9794 43.7135 17.5992 44.9167C17.2242 46.1198 16.9013 47.3385 16.6305 48.5677C16.3648 49.8021 16.1513 51.0417 15.9951 52.2917C15.8388 53.5417 15.7398 54.7969 15.6982 56.0573C15.6565 57.3177 15.6721 58.5781 15.7451 59.8333C15.8128 61.0938 15.943 62.349 16.1253 63.5938C16.3128 64.8385 16.5523 66.0781 16.8492 67.3021C17.1461 68.526 17.5003 69.7344 17.9065 70.9271C18.3128 72.1198 18.7711 73.2969 19.2815 74.4479C19.7971 75.599 20.3596 76.724 20.9742 77.8229C21.5888 78.9271 22.2503 79.9948 22.9638 81.0365Z" fill="#00A2ED"/>
<path d="M57.4583 31.3386C56.9427 31.3386 56.4323 31.3907 55.9323 31.4897C55.4271 31.5886 54.9375 31.7397 54.4583 31.9376C53.9844 32.1303 53.5312 32.3751 53.1042 32.6615C52.6771 32.948 52.2812 33.2709 51.9167 33.6355C51.5521 34.0001 51.2292 34.3959 50.9427 34.823C50.6562 35.2501 50.4167 35.7032 50.2188 36.1772C50.0208 36.6511 49.875 37.1407 49.776 37.6459C49.6719 38.1511 49.625 38.6615 49.625 39.1772C49.625 39.6876 49.6719 40.198 49.776 40.7032C49.875 41.2084 50.0208 41.698 50.2188 42.172C50.4167 42.6459 50.6562 43.099 50.9427 43.5261C51.2292 43.9532 51.5521 44.349 51.9167 44.7136C52.2812 45.0782 52.6771 45.4063 53.1042 45.6876C53.5312 45.974 53.9844 46.2188 54.4583 46.4115C54.9375 46.6095 55.4271 46.7605 55.9323 46.8595C56.4323 46.9584 56.9427 47.0105 57.4583 47.0105C58.1458 47.0105 58.8229 47.0782 59.4948 47.2084C60.1719 47.3438 60.8229 47.5417 61.4583 47.8074C62.0885 48.0678 62.6927 48.3907 63.2604 48.7709C63.8333 49.1511 64.3594 49.5834 64.8438 50.0678C65.3333 50.5574 65.7656 51.0834 66.1458 51.6511C66.526 52.224 66.849 52.8282 67.1094 53.4584C67.375 54.0938 67.5729 54.7449 67.7031 55.4167C67.8385 56.0938 67.9062 56.7709 67.9062 57.4584C67.9062 57.974 67.9583 58.4792 68.0573 58.9845C68.1563 59.4897 68.3073 59.9792 68.5 60.4584C68.6979 60.9324 68.9427 61.3803 69.224 61.8126C69.5104 62.2397 69.8385 62.6355 70.2031 63.0001C70.5625 63.3595 70.9583 63.6876 71.3906 63.974C71.8177 64.2605 72.2656 64.5001 72.7448 64.698C73.2188 64.8907 73.7083 65.0418 74.2135 65.1407C74.7188 65.2449 75.2292 65.2917 75.7396 65.2917C76.2552 65.2917 76.7656 65.2449 77.2708 65.1407C77.776 65.0418 78.2656 64.8907 78.7396 64.698C79.2135 64.5001 79.6667 64.2605 80.0938 63.974C80.5208 63.6876 80.9167 63.3595 81.2812 63.0001C81.6458 62.6355 81.9688 62.2397 82.2552 61.8126C82.5417 61.3803 82.7812 60.9324 82.9792 60.4584C83.1771 59.9792 83.3281 59.4897 83.4271 58.9845C83.526 58.4792 83.5781 57.974 83.5781 57.4584C83.5781 56.6042 83.5365 55.7501 83.4531 54.8959C83.3646 54.047 83.2396 53.2032 83.0729 52.3595C82.9062 51.5209 82.6979 50.6928 82.4531 49.8751C82.2031 49.0574 81.9167 48.2501 81.5885 47.4636C81.2604 46.672 80.8958 45.9011 80.4948 45.1459C80.0885 44.3907 79.651 43.6563 79.1771 42.948C78.6979 42.2345 78.1927 41.547 77.6458 40.8907C77.1042 40.2292 76.5312 39.5938 75.9271 38.9897C75.3229 38.3855 74.6875 37.8126 74.026 37.2657C73.3646 36.724 72.6823 36.2136 71.9688 35.7397C71.2604 35.2657 70.526 34.8282 69.7708 34.422C69.0156 34.0209 68.2448 33.6563 67.4531 33.3282C66.6615 33.0001 65.8594 32.7136 65.0417 32.4636C64.224 32.2136 63.3906 32.0105 62.5521 31.8386C61.7135 31.672 60.8698 31.547 60.0208 31.4636C59.1667 31.3803 58.3125 31.3386 57.4583 31.3386Z" fill="#00A2ED"/>
</svg>
