<svg width="240" height="269" viewBox="0 0 240 269" fill="none" xmlns="http://www.w3.org/2000/svg">
<path d="M229.948 38.3229C229.948 37.0677 229.823 35.8229 229.578 34.5885C229.333 33.3542 228.969 32.1563 228.49 30.9896C228.005 29.8281 227.417 28.724 226.719 27.6771C226.016 26.6302 225.224 25.6667 224.333 24.776C223.443 23.8854 222.474 23.0938 221.432 22.3906C220.385 21.6927 219.281 21.1042 218.12 20.6198C216.953 20.1406 215.755 19.776 214.521 19.5313C213.286 19.2865 212.042 19.1615 210.786 19.1615H172.458V0H153.297V19.1615H76.651V0H57.4896V19.1615H19.1615C17.9062 19.1615 16.6562 19.2865 15.4271 19.5313C14.1927 19.776 12.9948 20.1406 11.8281 20.6198C10.6667 21.1042 9.5625 21.6927 8.51563 22.3906C7.46875 23.0938 6.50521 23.8854 5.61458 24.776C4.72396 25.6667 3.92708 26.6302 3.22917 27.6771C2.53125 28.724 1.94271 29.8281 1.45833 30.9896C0.979167 32.1563 0.614582 33.3542 0.369792 34.5885C0.125 35.8229 0 37.0677 0 38.3229V229.948C0 231.203 0.125 232.448 0.369792 233.682C0.614582 234.917 0.979167 236.115 1.45833 237.281C1.94271 238.443 2.53125 239.547 3.22917 240.594C3.92708 241.641 4.72396 242.604 5.61458 243.495C6.50521 244.385 7.46875 245.182 8.51563 245.88C9.5625 246.578 10.6667 247.167 11.8281 247.651C12.9948 248.13 14.1927 248.495 15.4271 248.74C16.6562 248.984 17.9062 249.109 19.1615 249.109H57.4896V229.948H19.1615V38.3229H57.4896V57.4896H76.651V38.3229H153.297V57.4896H172.458V38.3229H210.786V95.8125H229.948V38.3229Z" fill="#F65314"/>
<path d="M162.878 124.552L187.299 171.865L239.523 179.443L201.201 216.276L210.784 268.271L162.878 243.724L114.971 268.271L124.555 216.276L86.2266 179.443L139.883 171.865L162.878 124.552Z" fill="#F65314"/>
</svg>
