<svg width="275" height="275" viewBox="0 0 275 275" fill="none" xmlns="http://www.w3.org/2000/svg">
<path d="M137.323 265.076L111.776 188.425H9.57812L35.125 265.076H137.323ZM137.323 265.076H188.422M137.323 150.102V143.716C137.323 119.623 137.323 107.586 129.839 100.102C122.349 92.6175 110.318 92.6175 86.224 92.6175C62.1302 92.6175 50.099 92.6175 42.6094 100.102C35.125 107.586 35.125 119.623 35.125 143.716V150.102M162.875 207.591H239.521C240.359 207.591 241.193 207.628 242.026 207.711C242.859 207.795 243.688 207.914 244.505 208.081C245.328 208.243 246.135 208.446 246.938 208.69C247.74 208.93 248.526 209.211 249.297 209.534C250.073 209.852 250.828 210.211 251.568 210.607C252.302 211.003 253.021 211.43 253.714 211.894C254.411 212.362 255.083 212.857 255.729 213.388C256.375 213.92 256.995 214.482 257.589 215.071C258.177 215.664 258.74 216.284 259.271 216.93C259.802 217.576 260.302 218.248 260.766 218.946C261.229 219.638 261.661 220.357 262.052 221.097C262.448 221.831 262.807 222.586 263.125 223.362C263.448 224.133 263.729 224.92 263.969 225.722C264.214 226.524 264.417 227.331 264.578 228.154C264.745 228.977 264.865 229.8 264.948 230.633C265.031 231.467 265.073 232.3 265.073 233.138V239.524C265.073 240.362 265.031 241.196 264.948 242.029C264.865 242.862 264.745 243.69 264.578 244.508C264.417 245.331 264.214 246.144 263.969 246.94C263.729 247.743 263.448 248.529 263.125 249.305C262.807 250.076 262.448 250.831 262.052 251.571C261.661 252.31 261.229 253.024 260.766 253.722C260.302 254.414 259.802 255.086 259.271 255.732C258.74 256.383 258.177 257.003 257.589 257.592C256.995 258.185 256.375 258.748 255.729 259.274C255.083 259.805 254.411 260.305 253.714 260.769C253.021 261.232 252.302 261.664 251.568 262.06C250.828 262.451 250.073 262.81 249.297 263.133C248.526 263.451 247.74 263.732 246.938 263.977C246.135 264.217 245.328 264.42 244.505 264.586C243.688 264.748 242.859 264.873 242.026 264.951C241.193 265.034 240.359 265.076 239.521 265.076H226.745M226.745 150.102C226.745 150.94 226.703 151.774 226.625 152.607C226.542 153.44 226.417 154.269 226.255 155.086C226.094 155.909 225.891 156.716 225.646 157.519C225.401 158.321 225.12 159.107 224.802 159.878C224.479 160.654 224.125 161.409 223.729 162.149C223.333 162.883 222.906 163.602 222.443 164.3C221.974 164.993 221.479 165.664 220.948 166.31C220.417 166.956 219.854 167.576 219.266 168.17C218.672 168.763 218.052 169.321 217.406 169.852C216.76 170.383 216.089 170.883 215.391 171.347C214.698 171.81 213.979 172.243 213.24 172.633C212.505 173.029 211.75 173.388 210.974 173.706C210.203 174.029 209.417 174.31 208.615 174.55C207.813 174.795 207 174.998 206.182 175.159C205.359 175.326 204.536 175.446 203.703 175.529C202.87 175.612 202.031 175.654 201.198 175.654C200.359 175.654 199.526 175.612 198.693 175.529C197.859 175.446 197.031 175.326 196.214 175.159C195.391 174.998 194.583 174.795 193.781 174.55C192.979 174.31 192.193 174.029 191.422 173.706C190.646 173.388 189.891 173.029 189.151 172.633C188.417 172.243 187.698 171.81 187 171.347C186.307 170.883 185.635 170.383 184.99 169.852C184.344 169.321 183.724 168.763 183.13 168.17C182.542 167.576 181.979 166.956 181.448 166.31C180.917 165.664 180.417 164.993 179.953 164.3C179.49 163.602 179.057 162.883 178.667 162.149C178.271 161.409 177.911 160.654 177.594 159.878C177.271 159.107 176.99 158.321 176.75 157.519C176.505 156.716 176.302 155.909 176.141 155.086C175.974 154.269 175.854 153.44 175.771 152.607C175.688 151.774 175.646 150.94 175.646 150.102C175.646 149.269 175.688 148.43 175.771 147.597C175.854 146.763 175.974 145.94 176.141 145.118C176.302 144.3 176.505 143.487 176.75 142.685C176.99 141.883 177.271 141.097 177.594 140.326C177.911 139.555 178.271 138.795 178.667 138.06C179.057 137.321 179.49 136.602 179.953 135.909C180.417 135.211 180.917 134.539 181.448 133.894C181.979 133.248 182.542 132.628 183.13 132.034C183.724 131.446 184.344 130.883 184.99 130.352C185.635 129.821 186.307 129.326 187 128.857C187.698 128.394 188.417 127.966 189.151 127.571C189.891 127.175 190.646 126.821 191.422 126.498C192.193 126.18 192.979 125.899 193.781 125.654C194.583 125.409 195.391 125.206 196.214 125.045C197.031 124.883 197.859 124.758 198.693 124.675C199.526 124.597 200.359 124.555 201.198 124.555C202.031 124.555 202.87 124.597 203.703 124.675C204.536 124.758 205.359 124.883 206.182 125.045C207 125.206 207.813 125.409 208.615 125.654C209.417 125.899 210.203 126.18 210.974 126.498C211.75 126.821 212.505 127.175 213.24 127.571C213.979 127.966 214.698 128.394 215.391 128.857C216.089 129.326 216.76 129.821 217.406 130.352C218.052 130.883 218.672 131.446 219.266 132.034C219.854 132.628 220.417 133.248 220.948 133.894C221.479 134.539 221.974 135.211 222.443 135.909C222.906 136.602 223.333 137.321 223.729 138.06C224.125 138.795 224.479 139.555 224.802 140.326C225.12 141.097 225.401 141.883 225.646 142.685C225.891 143.487 226.094 144.3 226.255 145.118C226.417 145.94 226.542 146.763 226.625 147.597C226.703 148.43 226.745 149.269 226.745 150.102ZM111.776 35.1279C111.776 35.9665 111.734 36.7998 111.651 37.6331C111.568 38.4665 111.448 39.2946 111.281 40.1123C111.12 40.9352 110.917 41.7477 110.672 42.5446C110.432 43.3467 110.151 44.1331 109.828 44.9092C109.51 45.68 109.151 46.4352 108.755 47.1748C108.365 47.9144 107.932 48.6279 107.469 49.3259C107.005 50.0186 106.505 50.6904 105.974 51.3363C105.443 51.9873 104.88 52.6071 104.292 53.1956C103.698 53.7894 103.078 54.3519 102.432 54.8779C101.786 55.4092 101.115 55.9092 100.417 56.3727C99.724 56.8363 99.0052 57.2686 98.2708 57.6644C97.5313 58.055 96.776 58.4144 96 58.7373C95.2292 59.055 94.4427 59.3363 93.6406 59.5811C92.8386 59.8206 92.0313 60.0238 91.2083 60.1904C90.3906 60.3519 89.5625 60.4769 88.7292 60.555C87.8958 60.6384 87.0625 60.68 86.224 60.68C85.3854 60.68 84.5521 60.6384 83.7188 60.555C82.8854 60.4769 82.0625 60.3519 81.2396 60.1904C80.4167 60.0238 79.6094 59.8206 78.8073 59.5811C78.0052 59.3363 77.2188 59.055 76.4479 58.7373C75.6719 58.4144 74.9167 58.055 74.1823 57.6644C73.4427 57.2686 72.724 56.8363 72.0312 56.3727C71.3333 55.9092 70.6615 55.4092 70.0156 54.8779C69.3698 54.3519 68.75 53.7894 68.1563 53.1956C67.5677 52.6071 67.0052 51.9873 66.474 51.3363C65.9427 50.6904 65.4479 50.0186 64.9792 49.3259C64.5156 48.6279 64.0886 47.9144 63.6927 47.1748C63.2969 46.4352 62.9375 45.68 62.6198 44.9092C62.2969 44.1331 62.0156 43.3467 61.776 42.5446C61.5313 41.7477 61.3281 40.9352 61.1667 40.1123C61 39.2946 60.8802 38.4665 60.7969 37.6331C60.7135 36.7998 60.6771 35.9665 60.6771 35.1279C60.6771 34.2946 60.7135 33.4613 60.7969 32.6279C60.8802 31.7946 61 30.9665 61.1667 30.1436C61.3281 29.3259 61.5313 28.5134 61.776 27.7113C62.0156 26.9144 62.2969 26.1279 62.6198 25.3519C62.9375 24.5811 63.2969 23.8259 63.6927 23.0863C64.0886 22.3467 64.5156 21.6331 64.9792 20.9352C65.4479 20.2425 65.9427 19.5706 66.474 18.9196C67.0052 18.2738 67.5677 17.654 68.1563 17.0654C68.75 16.4717 69.3698 15.9092 70.0156 15.3779C70.6615 14.8519 71.3333 14.3519 72.0312 13.8884C72.724 13.4196 73.4427 12.9925 74.1823 12.5967C74.9167 12.2008 75.6719 11.8467 76.4479 11.5238C77.2188 11.2061 78.0052 10.9248 78.8073 10.68C79.6094 10.4404 80.4167 10.2373 81.2396 10.0706C82.0625 9.90919 82.8854 9.78419 83.7188 9.70605C84.5521 9.62273 85.3854 9.58105 86.224 9.58105C87.0625 9.58105 87.8958 9.62273 88.7292 9.70605C89.5625 9.78419 90.3906 9.90919 91.2083 10.0706C92.0313 10.2373 92.8386 10.4404 93.6406 10.68C94.4427 10.9248 95.2292 11.2061 96 11.5238C96.776 11.8467 97.5313 12.2008 98.2708 12.5967C99.0052 12.9925 99.724 13.4196 100.417 13.8884C101.115 14.3519 101.786 14.8519 102.432 15.3779C103.078 15.9092 103.698 16.4717 104.292 17.0654C104.88 17.654 105.443 18.2738 105.974 18.9196C106.505 19.5706 107.005 20.2425 107.469 20.9352C107.932 21.6331 108.365 22.3467 108.755 23.0863C109.151 23.8259 109.51 24.5811 109.828 25.3519C110.151 26.1279 110.432 26.9144 110.672 27.7113C110.917 28.5134 111.12 29.3259 111.281 30.1436C111.448 30.9665 111.568 31.7946 111.651 32.6279C111.734 33.4613 111.776 34.2946 111.776 35.1279Z" stroke="#7CBB00" stroke-width="19.1621" stroke-linecap="round" stroke-linejoin="round"/>
</svg>
