<svg width="236" height="236" viewBox="0 0 236 236" fill="none" xmlns="http://www.w3.org/2000/svg">
<path d="M141.318 70.6563H153.094C153.865 70.6563 154.63 70.5833 155.391 70.4323C156.146 70.2813 156.885 70.0573 157.599 69.7604C158.313 69.4635 158.99 69.1042 159.635 68.6719C160.276 68.2448 160.875 67.7552 161.422 67.2083C161.969 66.6615 162.453 66.0677 162.885 65.4219C163.313 64.7813 163.677 64.1042 163.974 63.3854C164.266 62.6719 164.49 61.9375 164.641 61.1771C164.792 60.4219 164.87 59.6563 164.87 58.8802C164.87 58.1094 164.792 57.3438 164.641 56.5833C164.49 55.8229 164.266 55.0885 163.974 54.375C163.677 53.6615 163.313 52.9792 162.885 52.3385C162.453 51.6979 161.969 51.099 161.422 50.5521C160.875 50.0052 160.276 49.5208 159.635 49.0885C158.99 48.6615 158.313 48.2969 157.599 48C156.885 47.7031 156.146 47.4844 155.391 47.3333C154.63 47.1823 153.865 47.1042 153.094 47.1042H141.318C140.542 47.1042 139.776 47.1823 139.021 47.3333C138.26 47.4844 137.526 47.7031 136.807 48C136.094 48.2969 135.417 48.6615 134.776 49.0885C134.13 49.5208 133.536 50.0052 132.99 50.5521C132.443 51.099 131.953 51.6979 131.526 52.3385C131.094 52.9792 130.734 53.6615 130.438 54.375C130.141 55.0885 129.917 55.8229 129.766 56.5833C129.615 57.3438 129.542 58.1094 129.542 58.8802C129.542 59.6563 129.615 60.4219 129.766 61.1771C129.917 61.9375 130.141 62.6719 130.438 63.3854C130.734 64.1042 131.094 64.7813 131.526 65.4219C131.953 66.0677 132.443 66.6615 132.99 67.2083C133.536 67.7552 134.13 68.2448 134.776 68.6719C135.417 69.1042 136.094 69.4635 136.807 69.7604C137.526 70.0573 138.26 70.2813 139.021 70.4323C139.776 70.5833 140.542 70.6563 141.318 70.6563ZM141.318 117.76H153.094C153.865 117.76 154.63 117.688 155.391 117.536C156.146 117.385 156.885 117.161 157.599 116.865C158.313 116.568 158.99 116.208 159.635 115.776C160.276 115.349 160.875 114.859 161.422 114.313C161.969 113.766 162.453 113.172 162.885 112.526C163.313 111.885 163.677 111.208 163.974 110.49C164.266 109.776 164.49 109.042 164.641 108.281C164.792 107.526 164.87 106.76 164.87 105.984C164.87 105.214 164.792 104.448 164.641 103.688C164.49 102.932 164.266 102.193 163.974 101.479C163.677 100.766 163.313 100.089 162.885 99.4427C162.453 98.8021 161.969 98.2031 161.422 97.6563C160.875 97.1094 160.276 96.625 159.635 96.1927C158.99 95.7656 158.313 95.401 157.599 95.1042C156.885 94.8125 156.146 94.5885 155.391 94.4375C154.63 94.2865 153.865 94.2083 153.094 94.2083H141.318C140.542 94.2083 139.776 94.2865 139.021 94.4375C138.26 94.5885 137.526 94.8125 136.807 95.1042C136.094 95.401 135.417 95.7656 134.776 96.1927C134.13 96.625 133.536 97.1094 132.99 97.6563C132.443 98.2031 131.953 98.8021 131.526 99.4427C131.094 100.089 130.734 100.766 130.438 101.479C130.141 102.193 129.917 102.932 129.766 103.688C129.615 104.448 129.542 105.214 129.542 105.984C129.542 106.76 129.615 107.526 129.766 108.281C129.917 109.042 130.141 109.776 130.438 110.49C130.734 111.208 131.094 111.885 131.526 112.526C131.953 113.172 132.443 113.766 132.99 114.313C133.536 114.859 134.13 115.349 134.776 115.776C135.417 116.208 136.094 116.568 136.807 116.865C137.526 117.161 138.26 117.385 139.021 117.536C139.776 117.688 140.542 117.76 141.318 117.76ZM82.4375 70.6563H94.2135C94.9844 70.6563 95.75 70.5833 96.5104 70.4323C97.2656 70.2813 98.0052 70.0573 98.7188 69.7604C99.4323 69.4635 100.109 69.1042 100.755 68.6719C101.396 68.2448 101.99 67.7552 102.536 67.2083C103.083 66.6615 103.573 66.0677 104.005 65.4219C104.432 64.7813 104.797 64.1042 105.094 63.3854C105.385 62.6719 105.609 61.9375 105.76 61.1771C105.911 60.4219 105.99 59.6563 105.99 58.8802C105.99 58.1094 105.911 57.3438 105.76 56.5833C105.609 55.8229 105.385 55.0885 105.094 54.375C104.797 53.6615 104.432 52.9792 104.005 52.3385C103.573 51.6979 103.083 51.099 102.536 50.5521C101.99 50.0052 101.396 49.5208 100.755 49.0885C100.109 48.6615 99.4323 48.2969 98.7188 48C98.0052 47.7031 97.2656 47.4844 96.5104 47.3333C95.75 47.1823 94.9844 47.1042 94.2135 47.1042H82.4375C81.6615 47.1042 80.8958 47.1823 80.1406 47.3333C79.3802 47.4844 78.6458 47.7031 77.9271 48C77.2135 48.2969 76.5365 48.6615 75.8906 49.0885C75.25 49.5208 74.6563 50.0052 74.1094 50.5521C73.5625 51.099 73.0729 51.6979 72.6458 52.3385C72.2135 52.9792 71.8542 53.6615 71.5573 54.375C71.2604 55.0885 71.0365 55.8229 70.8854 56.5833C70.7344 57.3438 70.6615 58.1094 70.6615 58.8802C70.6615 59.6563 70.7344 60.4219 70.8854 61.1771C71.0365 61.9375 71.2604 62.6719 71.5573 63.3854C71.8542 64.1042 72.2135 64.7813 72.6458 65.4219C73.0729 66.0677 73.5625 66.6615 74.1094 67.2083C74.6563 67.7552 75.25 68.2448 75.8906 68.6719C76.5365 69.1042 77.2135 69.4635 77.9271 69.7604C78.6458 70.0573 79.3802 70.2813 80.1406 70.4323C80.8958 70.5833 81.6615 70.6563 82.4375 70.6563ZM82.4375 117.76H94.2135C94.9844 117.76 95.75 117.688 96.5104 117.536C97.2656 117.385 98.0052 117.161 98.7188 116.865C99.4323 116.568 100.109 116.208 100.755 115.776C101.396 115.349 101.99 114.859 102.536 114.313C103.083 113.766 103.573 113.172 104.005 112.526C104.432 111.885 104.797 111.208 105.094 110.49C105.385 109.776 105.609 109.042 105.76 108.281C105.911 107.526 105.99 106.76 105.99 105.984C105.99 105.214 105.911 104.448 105.76 103.688C105.609 102.932 105.385 102.193 105.094 101.479C104.797 100.766 104.432 100.089 104.005 99.4427C103.573 98.8021 103.083 98.2031 102.536 97.6563C101.99 97.1094 101.396 96.625 100.755 96.1927C100.109 95.7656 99.4323 95.401 98.7188 95.1042C98.0052 94.8125 97.2656 94.5885 96.5104 94.4375C95.75 94.2865 94.9844 94.2083 94.2135 94.2083H82.4375C81.6615 94.2083 80.8958 94.2865 80.1406 94.4375C79.3802 94.5885 78.6458 94.8125 77.9271 95.1042C77.2135 95.401 76.5365 95.7656 75.8906 96.1927C75.25 96.625 74.6563 97.1094 74.1094 97.6563C73.5625 98.2031 73.0729 98.8021 72.6458 99.4427C72.2135 100.089 71.8542 100.766 71.5573 101.479C71.2604 102.193 71.0365 102.932 70.8854 103.688C70.7344 104.448 70.6615 105.214 70.6615 105.984C70.6615 106.76 70.7344 107.526 70.8854 108.281C71.0365 109.042 71.2604 109.776 71.5573 110.49C71.8542 111.208 72.2135 111.885 72.6458 112.526C73.0729 113.172 73.5625 113.766 74.1094 114.313C74.6563 114.859 75.25 115.349 75.8906 115.776C76.5365 116.208 77.2135 116.568 77.9271 116.865C78.6458 117.161 79.3802 117.385 80.1406 117.536C80.8958 117.688 81.6615 117.76 82.4375 117.76ZM223.75 211.969H211.974V11.776C211.974 11.0052 211.896 10.2396 211.745 9.47917C211.594 8.71875 211.375 7.98437 211.078 7.27083C210.781 6.55729 210.417 5.875 209.99 5.23438C209.557 4.58854 209.073 3.99479 208.526 3.44792C207.979 2.90104 207.38 2.41667 206.74 1.98438C206.099 1.55729 205.417 1.19271 204.703 0.895833C203.99 0.598957 203.255 0.375 202.495 0.223958C201.734 0.078125 200.969 0 200.198 0H35.3333C34.5573 0 33.7917 0.078125 33.0313 0.223958C32.276 0.375 31.5365 0.598957 30.8229 0.895833C30.1094 1.19271 29.4323 1.55729 28.7865 1.98438C28.1458 2.41667 27.5521 2.90104 27.0052 3.44792C26.4583 3.99479 25.9688 4.58854 25.5417 5.23438C25.1094 5.875 24.7448 6.55729 24.4531 7.27083C24.1562 7.98437 23.9323 8.71875 23.7813 9.47917C23.6302 10.2396 23.5573 11.0052 23.5573 11.776V211.969H11.7813C11.0052 211.969 10.2396 212.047 9.47917 212.198C8.72396 212.349 7.98437 212.573 7.27083 212.87C6.55729 213.161 5.88021 213.526 5.23438 213.953C4.59375 214.385 4 214.875 3.45313 215.422C2.90625 215.969 2.41667 216.563 1.98958 217.203C1.55729 217.849 1.19271 218.526 0.901042 219.24C0.604167 219.953 0.380208 220.693 0.229167 221.448C0.0781253 222.208 0 222.974 0 223.745C0 224.521 0.0781253 225.286 0.229167 226.047C0.380208 226.802 0.604167 227.542 0.901042 228.255C1.19271 228.969 1.55729 229.646 1.98958 230.292C2.41667 230.932 2.90625 231.526 3.45313 232.073C4 232.62 4.59375 233.109 5.23438 233.536C5.88021 233.969 6.55729 234.333 7.27083 234.625C7.98437 234.922 8.72396 235.146 9.47917 235.297C10.2396 235.448 11.0052 235.521 11.7813 235.521H223.75C224.521 235.521 225.286 235.448 226.047 235.297C226.807 235.146 227.542 234.922 228.255 234.625C228.969 234.333 229.651 233.969 230.292 233.536C230.932 233.109 231.531 232.62 232.078 232.073C232.625 231.526 233.109 230.932 233.542 230.292C233.969 229.646 234.333 228.969 234.63 228.255C234.927 227.542 235.146 226.802 235.297 226.047C235.448 225.286 235.526 224.521 235.526 223.745C235.526 222.974 235.448 222.208 235.297 221.448C235.146 220.693 234.927 219.953 234.63 219.24C234.333 218.526 233.969 217.849 233.542 217.203C233.109 216.563 232.625 215.969 232.078 215.422C231.531 214.875 230.932 214.385 230.292 213.953C229.651 213.526 228.969 213.161 228.255 212.87C227.542 212.573 226.807 212.349 226.047 212.198C225.286 212.047 224.521 211.969 223.75 211.969ZM129.542 211.969H105.99V164.865H129.542V211.969ZM188.422 211.969H153.094V153.089C153.094 152.318 153.016 151.552 152.865 150.792C152.714 150.036 152.49 149.297 152.198 148.583C151.901 147.87 151.536 147.193 151.109 146.547C150.677 145.906 150.188 145.313 149.646 144.766C149.099 144.219 148.5 143.729 147.859 143.297C147.214 142.87 146.536 142.505 145.823 142.208C145.109 141.917 144.37 141.693 143.615 141.542C142.854 141.391 142.089 141.313 141.318 141.313H94.2135C93.4375 141.313 92.6719 141.391 91.9167 141.542C91.1563 141.693 90.4219 141.917 89.7031 142.208C88.9896 142.505 88.3125 142.87 87.6667 143.297C87.026 143.729 86.4323 144.219 85.8854 144.766C85.3385 145.313 84.849 145.906 84.4219 146.547C83.9896 147.193 83.6302 147.87 83.3333 148.583C83.0365 149.297 82.8125 150.036 82.6615 150.792C82.5104 151.552 82.4375 152.318 82.4375 153.089V211.969H47.1094V23.5521H188.422V211.969Z" fill="#00A1F1"/>
</svg>
