<svg width="212" height="248" viewBox="0 0 212 248" fill="none" xmlns="http://www.w3.org/2000/svg">
<path d="M163.396 13.248H13.25V216.389H57.4063" stroke="#F65314" stroke-width="26.4963" stroke-linecap="round" stroke-linejoin="round"/>
<path d="M119.232 154.561L110.398 234.05L150.143 216.389L189.888 234.05L181.055 154.561" stroke="#F65314" stroke-width="26.4963" stroke-linecap="round" stroke-linejoin="round"/>
<path d="M198.719 114.816C198.719 116.41 198.641 117.998 198.484 119.581C198.328 121.165 198.094 122.732 197.781 124.295C197.474 125.857 197.089 127.399 196.625 128.92C196.161 130.441 195.63 131.936 195.021 133.41C194.411 134.878 193.729 136.316 192.979 137.717C192.229 139.118 191.417 140.482 190.531 141.805C189.646 143.128 188.698 144.404 187.693 145.634C186.682 146.863 185.615 148.04 184.49 149.165C183.365 150.29 182.188 151.357 180.958 152.368C179.729 153.378 178.453 154.326 177.13 155.206C175.807 156.092 174.443 156.91 173.042 157.66C171.635 158.41 170.198 159.087 168.729 159.696C167.26 160.305 165.766 160.842 164.24 161.305C162.719 161.764 161.177 162.149 159.62 162.462C158.057 162.774 156.484 163.003 154.901 163.16C153.318 163.316 151.729 163.394 150.141 163.394C148.552 163.394 146.964 163.316 145.38 163.16C143.797 163.003 142.224 162.774 140.661 162.462C139.104 162.149 137.563 161.764 136.042 161.305C134.516 160.842 133.021 160.305 131.552 159.696C130.083 159.087 128.646 158.41 127.24 157.66C125.839 156.91 124.474 156.092 123.151 155.206C121.828 154.326 120.552 153.378 119.323 152.368C118.094 151.357 116.917 150.29 115.792 149.165C114.667 148.04 113.599 146.863 112.589 145.634C111.583 144.404 110.635 143.128 109.75 141.805C108.865 140.482 108.052 139.118 107.302 137.717C106.552 136.316 105.87 134.878 105.26 133.41C104.651 131.936 104.12 130.441 103.656 128.92C103.193 127.399 102.807 125.857 102.495 124.295C102.188 122.732 101.953 121.165 101.797 119.581C101.641 117.998 101.562 116.41 101.562 114.816C101.562 113.227 101.641 111.639 101.797 110.055C101.953 108.472 102.188 106.904 102.495 105.342C102.807 103.779 103.193 102.238 103.656 100.717C104.12 99.196 104.651 97.7012 105.26 96.2273C105.87 94.7585 106.552 93.321 107.302 91.92C108.052 90.519 108.865 89.1544 109.75 87.8314C110.635 86.5085 111.583 85.2325 112.589 84.0033C113.599 82.7742 114.667 81.5919 115.792 80.4721C116.917 79.3471 118.094 78.2794 119.323 77.2689C120.552 76.2585 121.828 75.3106 123.151 74.4304C124.474 73.545 125.839 72.7273 127.24 71.9773C128.646 71.2273 130.083 70.5502 131.552 69.9408C133.021 69.3315 134.516 68.795 136.042 68.3314C137.563 67.8731 139.104 67.4877 140.661 67.1752C142.224 66.8627 143.797 66.6335 145.38 66.4773C146.964 66.321 148.552 66.2429 150.141 66.2429C151.729 66.2429 153.318 66.321 154.901 66.4773C156.484 66.6335 158.057 66.8627 159.62 67.1752C161.177 67.4877 162.719 67.8731 164.24 68.3314C165.766 68.795 167.26 69.3315 168.729 69.9408C170.198 70.5502 171.635 71.2273 173.042 71.9773C174.443 72.7273 175.807 73.545 177.13 74.4304C178.453 75.3106 179.729 76.2585 180.958 77.2689C182.188 78.2794 183.365 79.3471 184.49 80.4721C185.615 81.5919 186.682 82.7742 187.693 84.0033C188.698 85.2325 189.646 86.5085 190.531 87.8314C191.417 89.1544 192.229 90.519 192.979 91.92C193.729 93.321 194.411 94.7585 195.021 96.2273C195.63 97.7012 196.161 99.196 196.625 100.717C197.089 102.238 197.474 103.779 197.781 105.342C198.094 106.904 198.328 108.472 198.484 110.055C198.641 111.639 198.719 113.227 198.719 114.816Z" stroke="#F65314" stroke-width="26.4963" stroke-linecap="round" stroke-linejoin="round"/>
</svg>
