<svg width="283" height="283" viewBox="0 0 283 283" fill="none" xmlns="http://www.w3.org/2000/svg">
<mask id="mask0_2586_1773" style="mask-type:luminance" maskUnits="userSpaceOnUse" x="0" y="0" width="283" height="283">
<path d="M0 0H282.63V282.625H0V0Z" fill="white"/>
</mask>
<g mask="url(#mask0_2586_1773)">
<path d="M231.367 182.953H51.263M231.367 182.953V94.2084C231.367 72.0001 231.367 60.9063 224.466 54.0053C217.576 47.1042 206.471 47.1042 184.263 47.1042H98.3672C76.1536 47.1042 65.0651 47.1042 58.1641 54.0053C51.263 60.9063 51.263 72.0001 51.263 94.2084V182.953M231.367 182.953L251.904 204.151L252.94 205.234C254.831 207.307 256.299 209.646 257.352 212.25C258.404 214.849 258.977 217.552 259.065 220.354L259.076 221.849C259.076 223.615 259.076 224.49 259.029 225.229C258.94 226.651 258.721 228.047 258.378 229.427C258.034 230.807 257.57 232.146 256.987 233.443C256.404 234.734 255.706 235.969 254.898 237.141C254.086 238.307 253.18 239.396 252.174 240.401C251.169 241.406 250.086 242.313 248.914 243.12C247.747 243.927 246.513 244.625 245.216 245.214C243.919 245.797 242.586 246.261 241.206 246.604C239.826 246.948 238.424 247.162 237.008 247.25C235.883 247.302 234.753 247.318 233.628 247.297H49.0026C47.2318 247.297 46.362 247.297 45.6224 247.25C44.2005 247.162 42.8047 246.948 41.4245 246.604C40.0443 246.261 38.7057 245.797 37.4089 245.214C36.1172 244.625 34.8828 243.927 33.7109 243.12C32.5443 242.313 31.4557 241.406 30.4505 240.401C29.4453 239.396 28.5391 238.307 27.7318 237.141C26.9245 235.969 26.2266 234.734 25.638 233.443C25.0547 232.146 24.5911 230.807 24.2474 229.427C23.9037 228.047 23.6901 226.651 23.6016 225.229C23.5547 224.49 23.5547 223.604 23.5547 221.865L23.5651 220.365C23.6536 217.563 24.2214 214.859 25.2734 212.261C26.3255 209.662 27.7995 207.323 29.6849 205.245L30.7214 204.162L51.263 182.953M111.872 217.859H170.753" stroke="#7CBB00" stroke-width="17.6642" stroke-linecap="round"/>
</g>
</svg>
