<svg width="283" height="283" viewBox="0 0 283 283" fill="none" xmlns="http://www.w3.org/2000/svg">
<mask id="mask0_2586_2599" style="mask-type:luminance" maskUnits="userSpaceOnUse" x="0" y="0" width="283" height="253">
<path d="M0 0H282.49V252.938H0V0Z" fill="white"/>
</mask>
<g mask="url(#mask0_2586_2599)">
<path d="M70.6172 55.4377C79.7995 63.8075 98.7266 86.6668 100.93 111.198C102.398 127.615 110.581 141.834 123.586 148.672C128.753 151.38 134.674 152.943 141.242 153.016C150.128 153.11 159.107 146.693 159.086 137.807C159.086 135.068 158.628 132.255 157.919 129.662C157.326 127.677 157.112 125.656 157.284 123.594C157.451 121.526 157.987 119.568 158.898 117.703C166.076 102.912 180.201 98.9324 191.383 90.8908C196.341 87.3231 200.872 83.5575 202.862 80.5314C208.383 72.1772 213.888 55.4533 211.133 47.0835" stroke="#00A1F1" stroke-width="17.6557"/>
</g>
<mask id="mask1_2586_2599" style="mask-type:luminance" maskUnits="userSpaceOnUse" x="0" y="0" width="283" height="283">
<path d="M0 0H282.49V282.49H0V0Z" fill="white"/>
</mask>
<g mask="url(#mask1_2586_2599)">
<path d="M82.388 243.203C91.3307 248.375 100.794 252.297 110.773 254.963C120.753 257.635 130.909 258.963 141.242 258.948C206.247 258.948 258.945 206.255 258.945 141.245C258.945 76.2394 206.247 23.5415 141.242 23.5415C76.2318 23.5415 23.5391 76.2394 23.5391 141.245C23.5391 162.677 29.2682 182.797 39.2839 200.099" stroke="#00A1F1" stroke-width="17.6557" stroke-linecap="round"/>
<mask id="mask2_2586_2599" style="mask-type:luminance" maskUnits="userSpaceOnUse" x="52" y="52" width="231" height="231">
<path d="M52.625 52.9375H282.495V282.49H52.625V52.9375Z" fill="white"/>
</mask>
<g mask="url(#mask2_2586_2599)">
<path d="M258.955 153.016C255.069 163.974 252.34 192.74 208.554 193.198C208.554 193.198 199.22 193.198 188.335 195.792M158.163 215.115C148.856 232.656 154.283 251.641 158.163 258.948" stroke="#00A1F1" stroke-width="17.6557" stroke-linecap="round"/>
</g>
</g>
</svg>
