<svg width="774" height="460" viewBox="0 0 774 460" fill="none" xmlns="http://www.w3.org/2000/svg">
<circle cx="81.0678" cy="76.079" r="75.2475" fill="#6AAC0E"/>
<circle cx="75.2475" cy="383.721" r="75.2475" fill="#FFBB00"/>
<circle cx="239.877" cy="229.9" r="75.2475" fill="#8806CE"/>
<circle cx="545.025" cy="76.079" r="75.2475" fill="#FEA60F"/>
<mask id="mask0_479_1064" style="mask-type:luminance" maskUnits="userSpaceOnUse" x="160" y="0" width="151" height="152">
<path d="M160.087 0.601929H310.892V151.06H160.087V0.601929Z" fill="white"/>
</mask>
<g mask="url(#mask0_479_1064)">
<path fill-rule="evenodd" clip-rule="evenodd" d="M229.287 0.601929C233.421 0.601929 237.559 0.601929 241.693 0.601929C241.642 14.975 241.693 29.35 241.849 43.7231C247.395 30.2313 253.029 16.7885 258.753 3.39478C262.164 4.7903 265.576 6.18582 268.989 7.58134C269.508 7.69036 269.819 7.99927 269.919 8.5135C264.421 21.8145 258.991 35.1029 253.634 48.3766C263.87 38.1392 274.106 27.9018 284.341 17.6643C287.438 20.399 290.385 23.2955 293.181 26.35C283.002 36.6874 272.766 46.9757 262.474 57.2167C275.881 51.9381 289.271 46.5087 302.641 40.9302C303.099 41.2246 303.41 41.6371 303.571 42.1713C304.753 45.1949 305.992 48.1949 307.293 51.1677C307.516 51.6692 307.465 52.1344 307.138 52.565C293.57 58.0871 280.026 63.671 266.507 69.3167C281.29 69.4711 296.076 69.5238 310.86 69.4711C310.86 73.5051 310.86 77.5372 310.86 81.5693C296.283 81.5184 281.705 81.5693 267.126 81.7255C280.573 87.2404 293.961 92.877 307.293 98.6317C306.153 102.573 304.654 106.398 302.796 110.11C289.356 104.472 275.915 98.9406 262.474 93.5129C272.83 103.769 283.066 114.108 293.181 124.536C290.39 127.327 287.597 130.12 284.806 132.913C284.496 133.118 284.187 133.118 283.876 132.913C273.891 122.924 263.914 112.947 253.945 102.974C259.12 116.177 264.444 129.362 269.919 142.529C269.874 142.769 269.77 142.976 269.608 143.148C265.978 144.618 262.358 146.117 258.753 147.647C253.029 134.254 247.395 120.809 241.849 107.319C241.693 121.899 241.642 136.48 241.693 151.06C237.559 151.06 233.421 151.06 229.287 151.06C229.338 136.48 229.287 121.899 229.131 107.319C223.582 120.8 217.947 134.243 212.227 147.647C208.622 146.117 205.002 144.618 201.371 143.148C201.199 142.925 201.095 142.665 201.061 142.374C206.65 129.059 212.078 115.719 217.345 102.355C207.09 112.612 196.854 122.85 186.639 133.067C183.602 130.34 180.655 127.496 177.799 124.536C187.845 114.179 197.977 103.941 208.195 93.8237C194.835 99.0914 181.498 104.519 168.184 110.11C166.656 106.721 165.157 103.309 163.687 99.8727C163.389 98.7171 163.854 98.0447 165.083 97.8576C178.109 92.479 191.136 87.1023 204.163 81.7255C189.482 81.5693 174.8 81.5184 160.12 81.5693C160.12 77.5372 160.12 73.5051 160.12 69.4711C174.904 69.5238 189.689 69.4711 204.473 69.3167C190.905 63.7928 177.361 58.2089 163.841 52.565C163.514 52.1344 163.464 51.6692 163.687 51.1677C165.004 47.6207 166.554 44.2083 168.339 40.9302C181.502 46.4051 194.685 51.731 207.886 56.9078C198.046 46.7558 188.069 36.6728 177.955 26.6607C177.748 26.4535 177.748 26.2464 177.955 26.0411C180.755 23.1356 183.65 20.3427 186.639 17.6643C196.771 27.7982 206.903 37.932 217.035 48.0659C211.86 34.863 206.536 21.6783 201.061 8.5135C201.161 7.99927 201.471 7.69036 201.991 7.58134C205.404 6.18582 208.816 4.7903 212.227 3.39478C218.011 16.8666 223.645 30.413 229.131 44.0338C229.287 29.5571 229.338 15.0786 229.287 0.601929Z" fill="#FFBB00"/>
</g>
<mask id="mask1_479_1064" style="mask-type:luminance" maskUnits="userSpaceOnUse" x="465" y="308" width="152" height="152">
<path d="M465.216 308.74H616.021V459.198H465.216V308.74Z" fill="white"/>
</mask>
<g mask="url(#mask1_479_1064)">
<path fill-rule="evenodd" clip-rule="evenodd" d="M534.416 308.74C538.55 308.74 542.687 308.74 546.821 308.74C546.77 323.113 546.821 337.488 546.977 351.861C552.523 338.369 558.158 324.926 563.882 311.533C567.292 312.928 570.705 314.324 574.117 315.719C574.637 315.828 574.948 316.137 575.048 316.651C569.549 329.952 564.12 343.241 558.763 356.514C568.999 346.277 579.234 336.04 589.47 325.802C592.566 328.537 595.514 331.433 598.31 334.488C588.131 344.825 577.895 355.113 567.603 365.355C581.01 360.076 594.4 354.646 607.77 349.068C608.228 349.362 608.538 349.775 608.7 350.309C609.881 353.333 611.12 356.333 612.421 359.305C612.645 359.807 612.594 360.272 612.267 360.703C598.699 366.225 585.154 371.809 571.635 377.454C586.419 377.609 601.205 377.662 615.988 377.609C615.988 381.643 615.988 385.675 615.988 389.707C601.412 389.656 586.833 389.707 572.255 389.863C585.701 395.378 599.09 401.015 612.421 406.769C611.282 410.711 609.783 414.536 607.924 418.248C594.485 412.61 581.044 407.078 567.603 401.651C577.959 411.906 588.194 422.246 598.31 432.674C595.519 435.465 592.726 438.258 589.935 441.051C589.624 441.256 589.315 441.256 589.005 441.051C579.02 431.062 569.042 421.084 559.074 411.112C564.249 424.315 569.573 437.5 575.048 450.667C575.002 450.906 574.899 451.114 574.737 451.286C571.106 452.756 567.487 454.255 563.882 455.785C558.158 442.392 552.523 428.947 546.977 415.457C546.821 430.037 546.77 444.617 546.821 459.198C542.687 459.198 538.55 459.198 534.416 459.198C534.467 444.617 534.416 430.037 534.26 415.457C528.71 428.938 523.076 442.381 517.355 455.785C513.75 454.255 510.131 452.756 506.5 451.286C506.328 451.063 506.224 450.803 506.189 450.512C511.779 437.197 517.206 423.857 522.474 410.493C512.219 420.75 501.983 430.988 491.767 441.205C488.731 438.478 485.784 435.634 482.927 432.674C492.974 422.316 503.106 412.079 513.323 401.961C499.964 407.229 486.627 412.657 473.313 418.248C471.785 414.859 470.286 411.447 468.816 408.011C468.518 406.855 468.983 406.183 470.211 405.995C483.238 400.617 496.265 395.24 509.291 389.863C494.611 389.707 479.929 389.656 465.249 389.707C465.249 385.675 465.249 381.643 465.249 377.609C480.033 377.662 494.818 377.609 509.602 377.454C496.034 371.931 482.489 366.347 468.97 360.703C468.643 360.272 468.592 359.807 468.816 359.305C470.133 355.759 471.683 352.346 473.467 349.068C486.63 354.543 499.813 359.869 513.014 365.046C503.175 354.894 493.197 344.811 483.083 334.799C482.876 334.591 482.876 334.384 483.083 334.179C485.884 331.273 488.778 328.481 491.767 325.802C501.899 335.936 512.031 346.07 522.163 356.204C516.988 343.001 511.664 329.816 506.189 316.651C506.289 316.137 506.6 315.828 507.12 315.719C510.532 314.324 513.945 312.928 517.355 311.533C523.139 325.004 528.774 338.551 534.26 352.172C534.416 337.695 534.467 323.216 534.416 308.74Z" fill="#8806CE"/>
</g>
<mask id="mask2_479_1064" style="mask-type:luminance" maskUnits="userSpaceOnUse" x="314" y="0" width="152" height="152">
<path d="M314.758 0.601929H465.818V151.06H314.758V0.601929Z" fill="white"/>
</mask>
<g mask="url(#mask2_479_1064)">
<mask id="mask3_479_1064" style="mask-type:luminance" maskUnits="userSpaceOnUse" x="314" y="0" width="152" height="152">
<path d="M318.906 100.879C316.403 93.1892 314.759 84.3951 314.759 75.7872C314.759 67.1814 316.168 58.8987 318.671 51.2664C318.749 51.1038 318.749 50.9412 318.828 50.7786C328.841 22.1154 355.28 1.00322 385.609 0.59668H465.805V151.059H385.668C355.125 150.655 328.684 129.868 318.906 100.879Z" fill="white"/>
</mask>
<g mask="url(#mask3_479_1064)">
<mask id="mask4_479_1064" style="mask-type:luminance" maskUnits="userSpaceOnUse" x="314" y="0" width="152" height="152">
<path d="M465.819 0.252319H314.76V151.434H465.819V0.252319Z" fill="white"/>
</mask>
<g mask="url(#mask4_479_1064)">
<mask id="mask5_479_1064" style="mask-type:luminance" maskUnits="userSpaceOnUse" x="314" y="0" width="152" height="152">
<path d="M314.76 0.601929H465.82V151.06H314.76V0.601929Z" fill="white"/>
</mask>
<g mask="url(#mask5_479_1064)">
<mask id="mask6_479_1064" style="mask-type:luminance" maskUnits="userSpaceOnUse" x="314" y="0" width="152" height="152">
<path d="M318.907 100.88C316.404 93.1904 314.76 84.3963 314.76 75.7884C314.76 67.1826 316.169 58.8999 318.672 51.2677C318.75 51.105 318.75 50.9424 318.83 50.7798C328.842 22.1167 355.282 1.00444 385.61 0.5979H465.806V151.06H385.67C355.126 150.656 328.685 129.869 318.907 100.88Z" fill="white"/>
</mask>
<g mask="url(#mask6_479_1064)">
<path d="M314.76 151.06V0.5979H465.63V151.06H314.76Z" fill="#00A1F1"/>
</g>
</g>
</g>
</g>
</g>
<mask id="mask7_479_1064" style="mask-type:luminance" maskUnits="userSpaceOnUse" x="5" y="154" width="152" height="152">
<path d="M156.477 305.129H5.41675V154.671H156.477V305.129Z" fill="white"/>
</mask>
<g mask="url(#mask7_479_1064)">
<mask id="mask8_479_1064" style="mask-type:luminance" maskUnits="userSpaceOnUse" x="5" y="154" width="152" height="152">
<path d="M152.33 204.851C154.833 212.541 156.477 221.335 156.477 229.943C156.477 238.548 155.068 246.831 152.564 254.463C152.487 254.626 152.487 254.789 152.407 254.951C142.394 283.614 115.955 304.727 85.6264 305.133H5.43105V154.671H85.5672C116.11 155.075 142.552 175.862 152.33 204.851Z" fill="white"/>
</mask>
<g mask="url(#mask8_479_1064)">
<mask id="mask9_479_1064" style="mask-type:luminance" maskUnits="userSpaceOnUse" x="5" y="154" width="152" height="152">
<path d="M5.41821 305.477H156.478V154.296H5.41821V305.477Z" fill="white"/>
</mask>
<g mask="url(#mask9_479_1064)">
<mask id="mask10_479_1064" style="mask-type:luminance" maskUnits="userSpaceOnUse" x="5" y="154" width="152" height="152">
<path d="M156.479 305.129H5.4187V154.671H156.479V305.129Z" fill="white"/>
</mask>
<g mask="url(#mask10_479_1064)">
<mask id="mask11_479_1064" style="mask-type:luminance" maskUnits="userSpaceOnUse" x="5" y="154" width="152" height="152">
<path d="M152.331 204.85C154.834 212.54 156.478 221.335 156.478 229.942C156.478 238.548 155.069 246.831 152.566 254.463C152.488 254.626 152.488 254.788 152.409 254.951C142.396 283.614 115.957 304.726 85.6279 305.133H5.43251V154.671H85.5687C116.112 155.075 142.553 175.862 152.331 204.85Z" fill="white"/>
</mask>
<g mask="url(#mask11_479_1064)">
<path d="M156.478 154.671V305.133H5.60811V154.671H156.478Z" fill="#00A2ED"/>
</g>
</g>
</g>
</g>
</g>
<mask id="mask12_479_1064" style="mask-type:luminance" maskUnits="userSpaceOnUse" x="321" y="154" width="152" height="152">
<path d="M321.379 154.67H472.439V305.128H321.379V154.67Z" fill="white"/>
</mask>
<g mask="url(#mask12_479_1064)">
<mask id="mask13_479_1064" style="mask-type:luminance" maskUnits="userSpaceOnUse" x="321" y="154" width="152" height="152">
<path d="M325.527 254.948C323.023 247.258 321.38 238.464 321.38 229.856C321.38 221.251 322.788 212.968 325.292 205.336C325.369 205.173 325.369 205.01 325.449 204.848C335.462 176.185 361.901 155.072 392.23 154.666H472.425V305.128H392.289C361.746 304.724 335.305 283.937 325.527 254.948Z" fill="white"/>
</mask>
<g mask="url(#mask13_479_1064)">
<mask id="mask14_479_1064" style="mask-type:luminance" maskUnits="userSpaceOnUse" x="321" y="154" width="152" height="152">
<path d="M472.44 154.322H321.381V305.504H472.44V154.322Z" fill="white"/>
</mask>
<g mask="url(#mask14_479_1064)">
<mask id="mask15_479_1064" style="mask-type:luminance" maskUnits="userSpaceOnUse" x="321" y="154" width="152" height="152">
<path d="M321.381 154.67H472.441V305.128H321.381V154.67Z" fill="white"/>
</mask>
<g mask="url(#mask15_479_1064)">
<mask id="mask16_479_1064" style="mask-type:luminance" maskUnits="userSpaceOnUse" x="321" y="154" width="152" height="152">
<path d="M325.529 254.948C323.026 247.258 321.382 238.464 321.382 229.856C321.382 221.251 322.791 212.968 325.294 205.336C325.372 205.173 325.372 205.01 325.451 204.848C335.464 176.185 361.903 155.072 392.232 154.666H472.428V305.128H392.291C361.748 304.724 335.307 283.937 325.529 254.948Z" fill="white"/>
</mask>
<g mask="url(#mask16_479_1064)">
<path d="M321.382 305.128V154.666H472.252V305.128H321.382Z" fill="#F04E1F"/>
</g>
</g>
</g>
</g>
</g>
<mask id="mask17_479_1064" style="mask-type:luminance" maskUnits="userSpaceOnUse" x="465" y="154" width="152" height="152">
<path d="M616.276 305.129H465.217V154.671H616.276V305.129Z" fill="white"/>
</mask>
<g mask="url(#mask17_479_1064)">
<mask id="mask18_479_1064" style="mask-type:luminance" maskUnits="userSpaceOnUse" x="465" y="154" width="152" height="152">
<path d="M612.129 204.851C614.632 212.541 616.276 221.335 616.276 229.943C616.276 238.548 614.867 246.831 612.364 254.463C612.286 254.626 612.286 254.789 612.207 254.951C602.194 283.614 575.755 304.727 545.426 305.133H465.23V154.671H545.367C575.91 155.075 602.351 175.862 612.129 204.851Z" fill="white"/>
</mask>
<g mask="url(#mask18_479_1064)">
<mask id="mask19_479_1064" style="mask-type:luminance" maskUnits="userSpaceOnUse" x="465" y="154" width="152" height="152">
<path d="M465.218 305.477H616.277V154.296H465.218V305.477Z" fill="white"/>
</mask>
<g mask="url(#mask19_479_1064)">
<mask id="mask20_479_1064" style="mask-type:luminance" maskUnits="userSpaceOnUse" x="465" y="154" width="152" height="152">
<path d="M616.278 305.129H465.218V154.671H616.278V305.129Z" fill="white"/>
</mask>
<g mask="url(#mask20_479_1064)">
<mask id="mask21_479_1064" style="mask-type:luminance" maskUnits="userSpaceOnUse" x="465" y="154" width="152" height="152">
<path d="M612.13 204.85C614.634 212.54 616.277 221.335 616.277 229.942C616.277 238.548 614.869 246.831 612.365 254.463C612.288 254.626 612.288 254.788 612.208 254.951C602.195 283.614 575.756 304.726 545.427 305.133H465.232V154.671H545.368C575.911 155.075 602.352 175.862 612.13 204.85Z" fill="white"/>
</mask>
<g mask="url(#mask21_479_1064)">
<path d="M616.277 154.671V305.133H465.407V154.671H616.277Z" fill="#F04E1F"/>
</g>
</g>
</g>
</g>
</g>
<mask id="mask22_479_1064" style="mask-type:luminance" maskUnits="userSpaceOnUse" x="619" y="298" width="152" height="152">
<path d="M619.887 449.568V298.509H770.345V449.568H619.887Z" fill="white"/>
</mask>
<g mask="url(#mask22_479_1064)">
<mask id="mask23_479_1064" style="mask-type:luminance" maskUnits="userSpaceOnUse" x="619" y="298" width="152" height="152">
<path d="M720.164 445.422C712.474 447.925 703.68 449.568 695.072 449.568C686.467 449.568 678.184 448.16 670.552 445.656C670.389 445.579 670.226 445.579 670.064 445.499C641.401 435.486 620.288 409.047 619.882 378.718V298.523H770.344V378.659C769.94 409.202 749.153 435.643 720.164 445.422Z" fill="white"/>
</mask>
<g mask="url(#mask23_479_1064)">
<mask id="mask24_479_1064" style="mask-type:luminance" maskUnits="userSpaceOnUse" x="619" y="298" width="152" height="152">
<path d="M619.536 298.51V449.57H770.718V298.51H619.536Z" fill="white"/>
</mask>
<g mask="url(#mask24_479_1064)">
<mask id="mask25_479_1064" style="mask-type:luminance" maskUnits="userSpaceOnUse" x="619" y="298" width="152" height="152">
<path d="M619.885 449.569V298.51H770.343V449.569H619.885Z" fill="white"/>
</mask>
<g mask="url(#mask25_479_1064)">
<mask id="mask26_479_1064" style="mask-type:luminance" maskUnits="userSpaceOnUse" x="619" y="298" width="152" height="152">
<path d="M720.163 445.422C712.473 447.926 703.679 449.569 695.071 449.569C686.465 449.569 678.182 448.161 670.55 445.657C670.388 445.58 670.225 445.58 670.062 445.5C641.399 435.487 620.287 409.048 619.88 378.719V298.524H770.343V378.66C769.938 409.203 749.151 435.644 720.163 445.422Z" fill="white"/>
</mask>
<g mask="url(#mask26_479_1064)">
<path d="M770.343 449.569H619.88V298.699H770.343V449.569Z" fill="#00A1F1"/>
</g>
</g>
</g>
</g>
</g>
<mask id="mask27_479_1064" style="mask-type:luminance" maskUnits="userSpaceOnUse" x="619" y="154" width="152" height="152">
<path d="M770.345 154.67V305.73H619.887V154.67H770.345Z" fill="white"/>
</mask>
<g mask="url(#mask27_479_1064)">
<mask id="mask28_479_1064" style="mask-type:luminance" maskUnits="userSpaceOnUse" x="619" y="154" width="152" height="152">
<path d="M670.067 158.817C677.757 156.314 686.551 154.67 695.159 154.67C703.765 154.67 712.047 156.079 719.68 158.582C719.842 158.66 720.005 158.66 720.167 158.739C748.831 168.752 769.943 195.192 770.349 225.52V305.716H619.887V225.579C620.291 195.036 641.078 168.595 670.067 158.817Z" fill="white"/>
</mask>
<g mask="url(#mask28_479_1064)">
<mask id="mask29_479_1064" style="mask-type:luminance" maskUnits="userSpaceOnUse" x="619" y="154" width="152" height="152">
<path d="M770.694 305.729V154.669H619.512V305.729H770.694Z" fill="white"/>
</mask>
<g mask="url(#mask29_479_1064)">
<mask id="mask30_479_1064" style="mask-type:luminance" maskUnits="userSpaceOnUse" x="619" y="154" width="152" height="152">
<path d="M770.344 154.669V305.729H619.886V154.669H770.344Z" fill="white"/>
</mask>
<g mask="url(#mask30_479_1064)">
<mask id="mask31_479_1064" style="mask-type:luminance" maskUnits="userSpaceOnUse" x="619" y="154" width="152" height="152">
<path d="M670.065 158.815C677.755 156.312 686.549 154.669 695.157 154.669C703.763 154.669 712.046 156.077 719.678 158.581C719.841 158.658 720.003 158.658 720.166 158.738C748.829 168.751 769.941 195.19 770.348 225.519V305.714H619.886V225.578C620.29 195.035 641.077 168.594 670.065 158.815Z" fill="white"/>
</mask>
<g mask="url(#mask31_479_1064)">
<path d="M619.886 154.669H770.348V305.538H619.886V154.669Z" fill="#00A1F1"/>
</g>
</g>
</g>
</g>
</g>
<mask id="mask32_479_1064" style="mask-type:luminance" maskUnits="userSpaceOnUse" x="623" y="0" width="151" height="152">
<path d="M773.957 0V151.06H623.499V0H773.957Z" fill="white"/>
</mask>
<g mask="url(#mask32_479_1064)">
<mask id="mask33_479_1064" style="mask-type:luminance" maskUnits="userSpaceOnUse" x="623" y="0" width="151" height="152">
<path d="M673.679 4.14688C681.369 1.64364 690.163 0 698.771 0C707.377 0 715.66 1.40883 723.292 3.91207C723.454 3.98966 723.617 3.98966 723.78 4.06929C752.443 14.0822 773.555 40.5214 773.962 70.8501V151.046H623.499V70.9093C623.904 40.3662 644.691 13.925 673.679 4.14688Z" fill="white"/>
</mask>
<g mask="url(#mask33_479_1064)">
<mask id="mask34_479_1064" style="mask-type:luminance" maskUnits="userSpaceOnUse" x="623" y="0" width="152" height="152">
<path d="M774.306 151.06V0H623.125V151.06H774.306Z" fill="white"/>
</mask>
<g mask="url(#mask34_479_1064)">
<mask id="mask35_479_1064" style="mask-type:luminance" maskUnits="userSpaceOnUse" x="623" y="0" width="151" height="152">
<path d="M773.958 0V151.06H623.5V0H773.958Z" fill="white"/>
</mask>
<g mask="url(#mask35_479_1064)">
<mask id="mask36_479_1064" style="mask-type:luminance" maskUnits="userSpaceOnUse" x="623" y="0" width="151" height="152">
<path d="M673.679 4.14688C681.369 1.64364 690.163 0 698.771 0C707.377 0 715.66 1.40883 723.292 3.91207C723.455 3.98966 723.617 3.98966 723.78 4.06929C752.443 14.0822 773.555 40.5214 773.962 70.8501V151.046H623.5V70.9093C623.904 40.3662 644.691 13.925 673.679 4.14688Z" fill="white"/>
</mask>
<g mask="url(#mask36_479_1064)">
<path d="M623.5 0H773.962V150.87H623.5V0Z" fill="#6AAC0E"/>
</g>
</g>
</g>
</g>
</g>
<mask id="mask37_479_1064" style="mask-type:luminance" maskUnits="userSpaceOnUse" x="308" y="308" width="151" height="152">
<path d="M458.596 308.74V459.8H308.138V308.74H458.596Z" fill="white"/>
</mask>
<g mask="url(#mask37_479_1064)">
<mask id="mask38_479_1064" style="mask-type:luminance" maskUnits="userSpaceOnUse" x="308" y="308" width="151" height="152">
<path d="M358.319 312.886C366.009 310.383 374.803 308.74 383.411 308.74C392.017 308.74 400.299 310.148 407.932 312.652C408.094 312.729 408.257 312.729 408.419 312.809C437.083 322.822 458.195 349.261 458.601 379.59V459.785H308.139V379.649C308.543 349.106 329.33 322.665 358.319 312.886Z" fill="white"/>
</mask>
<g mask="url(#mask38_479_1064)">
<mask id="mask39_479_1064" style="mask-type:luminance" maskUnits="userSpaceOnUse" x="307" y="308" width="152" height="152">
<path d="M458.944 459.799V308.739H307.763V459.799H458.944Z" fill="white"/>
</mask>
<g mask="url(#mask39_479_1064)">
<mask id="mask40_479_1064" style="mask-type:luminance" maskUnits="userSpaceOnUse" x="308" y="308" width="151" height="152">
<path d="M458.597 308.739V459.799H308.139V308.739H458.597Z" fill="white"/>
</mask>
<g mask="url(#mask40_479_1064)">
<mask id="mask41_479_1064" style="mask-type:luminance" maskUnits="userSpaceOnUse" x="308" y="308" width="151" height="152">
<path d="M358.319 312.886C366.009 310.382 374.803 308.739 383.411 308.739C392.017 308.739 400.3 310.148 407.932 312.651C408.094 312.728 408.257 312.728 408.42 312.808C437.083 322.821 458.195 349.26 458.602 379.589V459.784H308.139V379.648C308.544 349.105 329.331 322.664 358.319 312.886Z" fill="white"/>
</mask>
<g mask="url(#mask41_479_1064)">
<path d="M308.139 308.739H458.602V459.609H308.139V308.739Z" fill="#00A1F1"/>
</g>
</g>
</g>
</g>
</g>
<rect x="153.821" y="308.473" width="150.495" height="150.495" fill="#6AAC0E"/>
</svg>
