<svg width="151" height="152" viewBox="0 0 151 152" fill="none" xmlns="http://www.w3.org/2000/svg">
<mask id="mask0_479_1235" style="mask-type:luminance" maskUnits="userSpaceOnUse" x="0" y="0" width="151" height="152">
<path d="M150.458 0V151.06H0V0H150.458Z" fill="white"/>
</mask>
<g mask="url(#mask0_479_1235)">
<mask id="mask1_479_1235" style="mask-type:luminance" maskUnits="userSpaceOnUse" x="0" y="-1" width="151" height="153">
<path d="M50.1811 4.14675C57.8711 1.64352 66.6652 -0.00012207 75.2731 -0.00012207C83.8789 -0.00012207 92.1616 1.40871 99.7938 3.91195C99.9565 3.98954 100.119 3.98954 100.282 4.06917C128.945 14.0821 150.057 40.5212 150.464 70.85V151.045H0.00132751V70.9092C0.405716 40.3661 21.1927 13.9249 50.1811 4.14675Z" fill="white"/>
</mask>
<g mask="url(#mask1_479_1235)">
<mask id="mask2_479_1235" style="mask-type:luminance" maskUnits="userSpaceOnUse" x="-1" y="-1" width="152" height="153">
<path d="M150.807 151.059V-0.000610352H-0.374588V151.059H150.807Z" fill="white"/>
</mask>
<g mask="url(#mask2_479_1235)">
<mask id="mask3_479_1235" style="mask-type:luminance" maskUnits="userSpaceOnUse" x="0" y="-1" width="151" height="153">
<path d="M150.459 -0.000732422V151.059H0.000976562V-0.000732422H150.459Z" fill="white"/>
</mask>
<g mask="url(#mask3_479_1235)">
<mask id="mask4_479_1235" style="mask-type:luminance" maskUnits="userSpaceOnUse" x="0" y="-1" width="151" height="153">
<path d="M50.1813 4.1459C57.8713 1.64266 66.6654 -0.000976562 75.2734 -0.000976562C83.8792 -0.000976562 92.1618 1.40786 99.7941 3.91109C99.9567 3.98868 100.119 3.98868 100.282 4.06831C128.945 14.0813 150.057 40.5204 150.464 70.8491V151.045H0.00157166V70.9084C0.40596 40.3652 21.1929 13.924 50.1813 4.1459Z" fill="white"/>
</mask>
<g mask="url(#mask4_479_1235)">
<path d="M0.00157166 -0.000976562H150.464V150.869H0.00157166V-0.000976562Z" fill="#00A1F1"/>
</g>
</g>
</g>
</g>
</g>
</svg>
