<svg width="152" height="151" viewBox="0 0 152 151" fill="none" xmlns="http://www.w3.org/2000/svg">
<mask id="mask0_479_1101" style="mask-type:luminance" maskUnits="userSpaceOnUse" x="0" y="0" width="152" height="151">
<path d="M151.06 150.458H0V3.05176e-05H151.06V150.458Z" fill="white"/>
</mask>
<g mask="url(#mask0_479_1101)">
<mask id="mask1_479_1101" style="mask-type:luminance" maskUnits="userSpaceOnUse" x="0" y="-1" width="152" height="152">
<path d="M146.913 50.1795C149.416 57.8695 151.06 66.6636 151.06 75.2716C151.06 83.8773 149.651 92.16 147.148 99.7923C147.07 99.9549 147.07 100.118 146.991 100.28C136.978 128.943 110.538 150.055 80.2097 150.462H0.0142975V-0.000228882H80.1505C110.694 0.40416 137.135 21.1911 146.913 50.1795Z" fill="white"/>
</mask>
<g mask="url(#mask1_479_1101)">
<mask id="mask2_479_1101" style="mask-type:luminance" maskUnits="userSpaceOnUse" x="0" y="-1" width="152" height="152">
<path d="M0.00146484 150.806H151.061V-0.375412H0.00146484V150.806Z" fill="white"/>
</mask>
<g mask="url(#mask2_479_1101)">
<mask id="mask3_479_1101" style="mask-type:luminance" maskUnits="userSpaceOnUse" x="0" y="-1" width="152" height="152">
<path d="M151.062 150.458H0.00195312V-9.15527e-05H151.062V150.458Z" fill="white"/>
</mask>
<g mask="url(#mask3_479_1101)">
<mask id="mask4_479_1101" style="mask-type:luminance" maskUnits="userSpaceOnUse" x="0" y="-1" width="152" height="152">
<path d="M146.914 50.1794C149.418 57.8694 151.061 66.6635 151.061 75.2714C151.061 83.8772 149.652 92.1599 147.149 99.7922C147.072 99.9548 147.072 100.117 146.992 100.28C136.979 128.943 110.54 150.055 80.2112 150.462H0.0157623V-0.000350952H80.1519C110.695 0.404037 137.136 21.191 146.914 50.1794Z" fill="white"/>
</mask>
<g mask="url(#mask4_479_1101)">
<path d="M151.061 -0.000350952V150.462H0.19136V-0.000350952H151.061Z" fill="#00A2ED"/>
</g>
</g>
</g>
</g>
</g>
</svg>
