<svg width="151" height="295" viewBox="0 0 151 295" fill="none" xmlns="http://www.w3.org/2000/svg">
<mask id="mask0_479_1168" style="mask-type:luminance" maskUnits="userSpaceOnUse" x="0" y="143" width="151" height="152">
<path d="M0 294.898V143.838H150.458V294.898H0Z" fill="white"/>
</mask>
<g mask="url(#mask0_479_1168)">
<mask id="mask1_479_1168" style="mask-type:luminance" maskUnits="userSpaceOnUse" x="-1" y="143" width="152" height="152">
<path d="M100.277 290.751C92.5874 293.254 83.7933 294.898 75.1854 294.898C66.5796 294.898 58.2969 293.489 50.6646 290.986C50.502 290.908 50.3394 290.908 50.1768 290.829C21.5136 280.816 0.401412 254.377 -0.00512695 224.048V143.853H150.457V223.989C150.053 254.532 129.266 280.973 100.277 290.751Z" fill="white"/>
</mask>
<g mask="url(#mask1_479_1168)">
<mask id="mask2_479_1168" style="mask-type:luminance" maskUnits="userSpaceOnUse" x="-1" y="143" width="152" height="152">
<path d="M-0.350586 143.839V294.899H150.831V143.839H-0.350586Z" fill="white"/>
</mask>
<g mask="url(#mask2_479_1168)">
<mask id="mask3_479_1168" style="mask-type:luminance" maskUnits="userSpaceOnUse" x="-1" y="143" width="152" height="152">
<path d="M-0.00170898 294.899V143.839H150.456V294.899H-0.00170898Z" fill="white"/>
</mask>
<g mask="url(#mask3_479_1168)">
<mask id="mask4_479_1168" style="mask-type:luminance" maskUnits="userSpaceOnUse" x="-1" y="143" width="152" height="152">
<path d="M100.276 290.752C92.5859 293.255 83.7918 294.899 75.1839 294.899C66.5781 294.899 58.2954 293.49 50.6632 290.987C50.5005 290.909 50.3379 290.909 50.1753 290.83C21.5122 280.817 0.399948 254.378 -0.0065918 224.049V143.853H150.456V223.99C150.051 254.533 129.264 280.974 100.276 290.752Z" fill="white"/>
</mask>
<g mask="url(#mask4_479_1168)">
<path d="M150.456 294.899H-0.0065918V144.029H150.456V294.899Z" fill="#00A1F1"/>
</g>
</g>
</g>
</g>
</g>
<mask id="mask5_479_1168" style="mask-type:luminance" maskUnits="userSpaceOnUse" x="0" y="0" width="151" height="152">
<path d="M150.458 0V151.06H0.000518799V0H150.458Z" fill="white"/>
</mask>
<g mask="url(#mask5_479_1168)">
<mask id="mask6_479_1168" style="mask-type:luminance" maskUnits="userSpaceOnUse" x="0" y="-1" width="151" height="153">
<path d="M50.1799 4.14663C57.8699 1.6434 66.664 -0.000244141 75.2719 -0.000244141C83.8777 -0.000244141 92.1604 1.40859 99.7926 3.91183C99.9553 3.98941 100.118 3.98941 100.28 4.06904C128.944 14.082 150.056 40.5211 150.462 70.8499V151.045H0.000137329V70.9091C0.404526 40.3659 21.1915 13.9248 50.1799 4.14663Z" fill="white"/>
</mask>
<g mask="url(#mask6_479_1168)">
<mask id="mask7_479_1168" style="mask-type:luminance" maskUnits="userSpaceOnUse" x="-1" y="-1" width="152" height="153">
<path d="M150.807 151.059V-0.00109863H-0.374557V151.059H150.807Z" fill="white"/>
</mask>
<g mask="url(#mask7_479_1168)">
<mask id="mask8_479_1168" style="mask-type:luminance" maskUnits="userSpaceOnUse" x="-1" y="-1" width="152" height="153">
<path d="M150.457 -0.00146484V151.058H-0.000946045V-0.00146484H150.457Z" fill="white"/>
</mask>
<g mask="url(#mask8_479_1168)">
<mask id="mask9_479_1168" style="mask-type:luminance" maskUnits="userSpaceOnUse" x="-1" y="-1" width="152" height="153">
<path d="M50.1783 4.14504C57.8683 1.64181 66.6624 -0.00183105 75.2703 -0.00183105C83.8761 -0.00183105 92.1588 1.407 99.7911 3.91024C99.9537 3.98783 100.116 3.98783 100.279 4.06746C128.942 14.0804 150.054 40.5195 150.461 70.8483V151.044H-0.00144958V70.9075C0.402939 40.3644 21.1899 13.9232 50.1783 4.14504Z" fill="white"/>
</mask>
<g mask="url(#mask9_479_1168)">
<path d="M-0.00144958 -0.00183105H150.461V150.868H-0.00144958V-0.00183105Z" fill="#00A1F1"/>
</g>
</g>
</g>
</g>
</g>
</svg>
