<svg width="151" height="152" viewBox="0 0 151 152" fill="none" xmlns="http://www.w3.org/2000/svg">
<mask id="mask0_479_1213" style="mask-type:luminance" maskUnits="userSpaceOnUse" x="0" y="0" width="151" height="152">
<path d="M150.458 0V151.06H0.00012207V0H150.458Z" fill="white"/>
</mask>
<g mask="url(#mask0_479_1213)">
<mask id="mask1_479_1213" style="mask-type:luminance" maskUnits="userSpaceOnUse" x="0" y="0" width="151" height="152">
<path d="M50.18 4.14688C57.87 1.64364 66.6641 0 75.272 0C83.8778 0 92.1605 1.40883 99.7927 3.91207C99.9554 3.98966 100.118 3.98966 100.281 4.06929C128.944 14.0822 150.056 40.5214 150.462 70.8501V151.046H0.000228882V70.9093C0.404617 40.3662 21.1916 13.925 50.18 4.14688Z" fill="white"/>
</mask>
<g mask="url(#mask1_479_1213)">
<mask id="mask2_479_1213" style="mask-type:luminance" maskUnits="userSpaceOnUse" x="-1" y="0" width="152" height="152">
<path d="M150.807 151.06V0H-0.373856V151.06H150.807Z" fill="white"/>
</mask>
<g mask="url(#mask2_479_1213)">
<mask id="mask3_479_1213" style="mask-type:luminance" maskUnits="userSpaceOnUse" x="0" y="0" width="151" height="152">
<path d="M150.459 0V151.06H0.000610352V0H150.459Z" fill="white"/>
</mask>
<g mask="url(#mask3_479_1213)">
<mask id="mask4_479_1213" style="mask-type:luminance" maskUnits="userSpaceOnUse" x="0" y="0" width="151" height="152">
<path d="M50.1802 4.14688C57.8702 1.64364 66.6643 0 75.2723 0C83.8781 0 92.1607 1.40883 99.793 3.91207C99.9556 3.98966 100.118 3.98966 100.281 4.06929C128.944 14.0822 150.056 40.5214 150.463 70.8501V151.046H0.000473022V70.9093C0.404861 40.3662 21.1918 13.925 50.1802 4.14688Z" fill="white"/>
</mask>
<g mask="url(#mask4_479_1213)">
<path d="M0.000473022 0H150.463V150.87H0.000473022V0Z" fill="#6AAC0E"/>
</g>
</g>
</g>
</g>
</g>
</svg>
