<svg width="35" height="34" viewBox="0 0 35 34" fill="none" xmlns="http://www.w3.org/2000/svg">
<path d="M34.9205 19.0801C34.9717 19.0315 35 18.9666 35 18.8992V14.5982C35 14.5308 34.9717 14.4654 34.9205 14.4173C34.8698 14.37 34.8026 14.3431 34.7312 14.3431L22.9103 14.3788C24.2619 12.989 24.5324 12.7059 24.5953 12.6357L31.3124 6.89307C31.421 6.79964 31.432 6.64045 31.3353 6.53579L28.3501 3.29857C28.2533 3.19391 28.0855 3.18108 27.974 3.2717L21.0447 8.85513C21.0029 8.88962 20.9585 8.92651 20.9183 8.96621C20.9061 8.97784 20.5768 9.29663 20.0164 9.83837L19.882 0.251022C19.8808 0.111877 19.7599 0 19.6132 0H15.0804C14.9337 0 14.8128 0.111877 14.8116 0.251022L14.6649 10.7141L7.66042 3.21316C7.61224 3.16223 7.54504 3.13136 7.47361 3.12775C7.40261 3.12253 7.33118 3.1482 7.27878 3.19391C7.27878 3.19391 3.15292 6.77438 3.12757 6.79724C3.0684 6.84816 3.03627 6.92114 3.04008 6.99733C3.04304 7.0639 3.07389 7.12645 3.12334 7.17096C3.26746 7.30971 6.79781 10.8621 10.2128 14.2974L10.3311 14.4157L0.267534 14.4466C0.119608 14.4466 0 14.5613 0 14.7016V18.7946C0 18.9349 0.119608 19.0496 0.267534 19.0496L10.452 19.0801L6.58395 22.8173C4.52652 24.8066 3.08446 26.1989 3.07093 26.2129C3.02148 26.2615 2.99317 26.3276 2.99443 26.3954C2.9957 26.464 3.02529 26.5277 3.07769 26.575L6.46434 29.639C6.76146 29.9081 6.93348 30.0637 7.04083 30.1531C7.05308 30.1707 7.06914 30.1888 7.08943 30.2064C7.12958 30.2433 7.17819 30.265 7.22933 30.2742C7.2344 30.2754 7.23862 30.2754 7.24243 30.2754C7.32189 30.2854 7.40641 30.2602 7.46685 30.2012C7.47361 30.1948 7.48038 30.1872 7.48714 30.1796C7.64986 30.0087 9.98158 27.622 12.6734 24.8652L14.4916 23.0034L14.3521 32.948C14.3505 33.0154 14.3788 33.0815 14.4299 33.1301C14.4811 33.1786 14.5495 33.2067 14.6209 33.2067H20.0705C20.1428 33.2067 20.2113 33.1798 20.2611 33.1301C20.3123 33.0815 20.3393 33.0154 20.3393 32.948L20.2155 24.0885L27.8421 30.3211C27.9537 30.4117 28.1206 30.4017 28.2187 30.297L31.2317 27.0827C31.3298 26.978 31.3205 26.82 31.2127 26.7254C31.2127 26.7254 23.0645 19.6282 22.6601 19.2766C22.6385 19.2521 22.5806 19.1911 22.5121 19.117L34.7325 19.1542C34.8064 19.1526 34.8711 19.1274 34.9205 19.0801Z" fill="#00A2ED"/>
</svg>
