<svg width="151" height="151" viewBox="0 0 151 151" fill="none" xmlns="http://www.w3.org/2000/svg">
<mask id="mask0_479_1074" style="mask-type:luminance" maskUnits="userSpaceOnUse" x="0" y="0" width="151" height="151">
<path d="M0 0H150.805V150.458H0V0Z" fill="white"/>
</mask>
<g mask="url(#mask0_479_1074)">
<path fill-rule="evenodd" clip-rule="evenodd" d="M69.2002 0C73.334 0 77.4715 0 81.6054 0C81.5545 14.3731 81.6054 28.748 81.7616 43.1212C87.3074 29.6293 92.9421 16.1866 98.6659 2.79285C102.077 4.18837 105.489 5.58389 108.902 6.97941C109.421 7.08843 109.732 7.39734 109.832 7.91157C104.333 21.2126 98.904 34.5009 93.5472 47.7747C103.783 37.5373 114.018 27.2998 124.254 17.0624C127.35 19.7971 130.298 22.6935 133.094 25.748C122.915 36.0854 112.679 46.3737 102.387 56.6148C115.794 51.3362 129.184 45.9067 142.554 40.3283C143.012 40.6227 143.323 41.0352 143.484 41.5694C144.665 44.593 145.905 47.593 147.206 50.5657C147.429 51.0673 147.378 51.5324 147.051 51.9631C133.483 57.4852 119.939 63.0691 106.419 68.7148C121.203 68.8692 135.989 68.9219 150.773 68.8692C150.773 72.9031 150.773 76.9352 150.773 80.9673C136.196 80.9165 121.618 80.9673 107.039 81.1236C120.485 86.6384 133.874 92.275 147.206 98.0297C146.066 101.971 144.567 105.796 142.708 109.508C129.269 103.87 115.828 98.3386 102.387 92.911C112.743 103.167 122.978 113.506 133.094 123.934C130.303 126.725 127.51 129.518 124.719 132.311C124.409 132.516 124.1 132.516 123.789 132.311C113.804 122.322 103.826 112.345 93.8579 102.373C99.033 115.575 104.357 128.76 109.832 141.927C109.786 142.167 109.683 142.374 109.521 142.546C105.891 144.016 102.271 145.516 98.6659 147.046C92.9421 133.652 87.3074 120.207 81.7616 106.717C81.6054 121.297 81.5545 135.878 81.6054 150.458C77.4715 150.458 73.334 150.458 69.2002 150.458C69.251 135.878 69.2002 121.297 69.0439 106.717C63.4945 120.198 57.8598 133.641 52.1396 147.046C48.5345 145.516 44.9149 144.016 41.2843 142.546C41.1117 142.323 41.0081 142.063 40.9736 141.772C46.563 128.457 51.9906 115.118 57.2583 101.753C47.0027 112.01 36.7671 122.248 26.5514 132.465C23.5151 129.738 20.5678 126.894 17.7113 123.934C27.758 113.577 37.89 103.339 48.1075 93.2217C34.7483 98.4894 21.4109 103.917 8.09717 109.508C6.569 106.119 5.06991 102.707 3.59989 99.2708C3.30189 98.1151 3.76706 97.4428 4.99541 97.2557C18.0221 91.8771 31.0487 86.5003 44.0754 81.1236C29.3952 80.9673 14.7132 80.9165 0.032959 80.9673C0.032959 76.9352 0.032959 72.9031 0.032959 68.8692C14.8167 68.9219 29.6023 68.8692 44.3861 68.7148C30.8179 63.1908 17.2734 57.6069 3.75434 51.9631C3.42727 51.5324 3.37639 51.0673 3.59989 50.5657C4.91727 47.0188 6.46724 43.6063 8.25162 40.3283C21.4146 45.8032 34.5975 51.129 47.7986 56.3059C37.9591 46.1539 27.9815 36.0709 17.8676 26.0588C17.6605 25.8516 17.6605 25.6445 17.8676 25.4391C20.6677 22.5336 23.5623 19.7408 26.5514 17.0624C36.6835 27.1963 46.8155 37.3301 56.9476 47.464C51.7725 34.2611 46.4485 21.0763 40.9736 7.91157C41.0736 7.39734 41.3843 7.08843 41.904 6.97941C45.3164 5.58389 48.7289 4.18837 52.1396 2.79285C57.9234 16.2647 63.5581 29.811 69.0439 43.4319C69.2002 28.9552 69.251 14.4767 69.2002 0Z" fill="#8806CE"/>
</g>
</svg>
