<svg width="151" height="151" viewBox="0 0 151 151" fill="none" xmlns="http://www.w3.org/2000/svg">
<mask id="mask0_479_1069" style="mask-type:luminance" maskUnits="userSpaceOnUse" x="0" y="0" width="151" height="151">
<path d="M0 0H150.805V150.458H0V0Z" fill="white"/>
</mask>
<g mask="url(#mask0_479_1069)">
<path fill-rule="evenodd" clip-rule="evenodd" d="M69.2004 0C73.3343 0 77.4718 0 81.6056 0C81.5547 14.3731 81.6056 28.748 81.7619 43.1212C87.3076 29.6293 92.9424 16.1866 98.6662 2.79285C102.077 4.18837 105.489 5.58389 108.902 6.97941C109.421 7.08843 109.732 7.39734 109.832 7.91157C104.334 21.2126 98.9042 34.5009 93.5475 47.7747C103.783 37.5373 114.019 27.2998 124.254 17.0624C127.351 19.7971 130.298 22.6935 133.094 25.748C122.915 36.0854 112.68 46.3737 102.388 56.6148C115.794 51.3362 129.184 45.9067 142.554 40.3283C143.012 40.6227 143.323 41.0352 143.484 41.5694C144.666 44.593 145.905 47.593 147.206 50.5657C147.429 51.0673 147.379 51.5324 147.051 51.9631C133.483 57.4852 119.939 63.0691 106.42 68.7148C121.203 68.8692 135.989 68.9219 150.773 68.8692C150.773 72.9031 150.773 76.9352 150.773 80.9673C136.196 80.9165 121.618 80.9673 107.039 81.1236C120.486 86.6384 133.874 92.275 147.206 98.0297C146.067 101.971 144.567 105.796 142.709 109.508C129.269 103.87 115.829 98.3386 102.388 92.911C112.743 103.167 122.979 113.506 133.094 123.934C130.303 126.725 127.511 129.518 124.719 132.311C124.409 132.516 124.1 132.516 123.789 132.311C113.804 122.322 103.827 112.345 93.8582 102.373C99.0332 115.575 104.357 128.76 109.832 141.927C109.787 142.167 109.683 142.374 109.521 142.546C105.891 144.016 102.271 145.516 98.6662 147.046C92.9424 133.652 87.3076 120.207 81.7619 106.717C81.6056 121.297 81.5547 135.878 81.6056 150.458C77.4718 150.458 73.3343 150.458 69.2004 150.458C69.2513 135.878 69.2004 121.297 69.0441 106.717C63.4948 120.198 57.86 133.641 52.1398 147.046C48.5347 145.516 44.9151 144.016 41.2846 142.546C41.112 142.323 41.0084 142.063 40.9739 141.772C46.5632 128.457 51.9908 115.118 57.2585 101.753C47.0029 112.01 36.7673 122.248 26.5517 132.465C23.5153 129.738 20.568 126.894 17.7116 123.934C27.7582 113.577 37.8903 103.339 48.1077 93.2217C34.7485 98.4894 21.4112 103.917 8.09741 109.508C6.56924 106.119 5.07015 102.707 3.60013 99.2708C3.30213 98.1151 3.76731 97.4428 4.99565 97.2557C18.0223 91.8771 31.049 86.5003 44.0756 81.1236C29.3954 80.9673 14.7134 80.9165 0.0332031 80.9673C0.0332031 76.9352 0.0332031 72.9031 0.0332031 68.8692C14.817 68.9219 29.6026 68.8692 44.3863 68.7148C30.8182 63.1908 17.2737 57.6069 3.75459 51.9631C3.42751 51.5324 3.37663 51.0673 3.60013 50.5657C4.91752 47.0188 6.46749 43.6063 8.25186 40.3283C21.4148 45.8032 34.5977 51.129 47.7988 56.3059C37.9593 46.1539 27.9817 36.0709 17.8679 26.0588C17.6607 25.8516 17.6607 25.6445 17.8679 25.4391C20.668 22.5336 23.5626 19.7408 26.5517 17.0624C36.6837 27.1963 46.8158 37.3301 56.9478 47.464C51.7728 34.2611 46.4487 21.0763 40.9739 7.91157C41.0738 7.39734 41.3845 7.08843 41.9042 6.97941C45.3167 5.58389 48.7292 4.18837 52.1398 2.79285C57.9236 16.2647 63.5584 29.811 69.0441 43.4319C69.2004 28.9552 69.2513 14.4767 69.2004 0Z" fill="#FFBB00"/>
</g>
</svg>
